<?xml version="1.0" encoding="utf-8"?>
<!-- Generator: Adobe Illustrator 21.0.2, SVG Export Plug-In . SVG Version: 6.00 Build 0)  -->
<svg version="1.1" id="Layer_1" xmlns="http://www.w3.org/2000/svg" xmlns:xlink="http://www.w3.org/1999/xlink" x="0px" y="0px"
	 viewBox="0 0 259.6 230" enable-background="new 0 0 259.6 230" xml:space="preserve">
<g>
	<g>
		<g>
			<g>
				<path d="M12.4,137.9h16.8v3.3H15.8v10.5h13.5v3.3H15.8v16.5h-3.4V137.9z"/>
				<path d="M46,137.9l15.7,33.6h-3.6l-5.3-11.1H38.3l-5.2,11.1h-3.7l15.9-33.6H46z M45.6,145l-5.8,12.2h11.5L45.6,145z"/>
				<path d="M66.4,137.9h3.4v33.6h-3.4V137.9z"/>
				<path d="M77.7,137.9h6.7c3.7,0,6.3,0.2,7.6,0.5c2,0.5,3.6,1.4,4.9,2.9c1.2,1.5,1.9,3.4,1.9,5.5c0,1.8-0.4,3.4-1.3,4.8
					c-0.9,1.4-2.1,2.4-3.7,3.1s-3.8,1.1-6.6,1.1l12.1,15.6H95l-12.1-15.6H81v15.6h-3.4V137.9z M81,141.2v11.4l5.8,0
					c2.2,0,3.9-0.2,5-0.6c1.1-0.4,1.9-1.1,2.5-2c0.6-0.9,0.9-2,0.9-3.1c0-1.1-0.3-2.2-0.9-3.1c-0.6-0.9-1.4-1.6-2.4-2
					c-1-0.4-2.6-0.6-4.9-0.6H81z"/>
				<path d="M104.4,171.5l4.8-33.6h0.5l13.7,27.6l13.5-27.6h0.5l4.8,33.6H139l-3.3-24l-11.9,24h-0.9l-12-24.2l-3.3,24.2H104.4z"/>
				<path d="M148.4,137.9h3.4v33.6h-3.4V137.9z"/>
				<path d="M159.5,171.5v-33.6h0.7l22.4,25.8v-25.8h3.3v33.6h-0.8L163,146v25.4H159.5z"/>
				<path d="M194.1,137.9h19.3v3.3h-15.9v10.5h15.8v3.3h-15.8v13.2h15.8v3.3h-19.1V137.9z"/>
				<path d="M219.1,171.5v-33.6h7c5,0,8.7,0.4,10.9,1.2c3.3,1.1,5.8,3.1,7.6,5.9c1.8,2.8,2.8,6.2,2.8,10.1c0,3.4-0.7,6.3-2.2,8.9
					c-1.5,2.6-3.3,4.4-5.7,5.7c-2.3,1.2-5.6,1.8-9.8,1.8H219.1z M222.4,168.3h3.9c4.6,0,7.9-0.3,9.7-0.9c2.5-0.8,4.5-2.3,6-4.4
					c1.4-2.1,2.2-4.8,2.2-7.8c0-3.2-0.8-6-2.4-8.3c-1.6-2.3-3.8-3.9-6.6-4.7c-2.1-0.6-5.6-1-10.4-1h-2.4V168.3z"/>
			</g>
		</g>
		<path fill-rule="evenodd" clip-rule="evenodd" d="M165.5,127.6c0.1-7.5,3.2-22.2,0-28.2c-3.5-6.4-18.2-17.7-24.2-21.5
			c-6.7-4.3-10.1,7.3-18.6,7.3c-10.8,0-16,11-23.5,17.5c-8.9,7.8-19.1,12.3-19.3,24.9H165.5z"/>
		<path d="M32,127.6c0.2-53.5,43.8-97,97.4-97c53.6,0,97.2,43.5,97.4,97h19.8c-0.2-64.4-52.7-116.8-117.2-116.8
			c-64.5,0-117,52.4-117.2,116.8H32z"/>
		<path d="M53.9,127.6C54.1,105,73.7,91.4,89.2,78l0.5-0.4c13.6-11.8,21.5-25,39.7-25c14.5,0,28.6,4.1,40.8,11.9
			c10.7,6.9,19.6,16.4,25.7,27.6c5.9,10.8,9,23.1,9.1,35.6h8.4c-0.1-13.8-3.6-27.5-10.1-39.5c-6.7-12.4-16.6-23-28.5-30.7
			c-13.5-8.7-29.2-13.2-45.3-13.2c-21.3,0-31.4,15.1-45.2,27l-0.5,0.5c-16.8,14.6-38,30-38.2,55.9H53.9z"/>
	</g>
	<g>
		<path d="M13.5,187.6h2.1c1.2,0,2,0.1,2.5,0.2c0.6,0.1,1.1,0.5,1.5,0.9c0.4,0.5,0.6,1,0.6,1.8c0,0.7-0.2,1.3-0.6,1.8
			c-0.4,0.5-0.9,0.8-1.6,0.9c-0.5,0.1-1.4,0.2-2.7,0.2h-0.8v4.9h-1.1V187.6z M14.5,188.7v3.6l1.8,0c0.7,0,1.3-0.1,1.6-0.2
			c0.3-0.1,0.6-0.3,0.8-0.6c0.2-0.3,0.3-0.6,0.3-1c0-0.4-0.1-0.7-0.3-1c-0.2-0.3-0.4-0.5-0.8-0.6c-0.3-0.1-0.8-0.2-1.6-0.2H14.5z"/>
		<path d="M22.3,187.6h2.1c1.2,0,2,0,2.4,0.1c0.6,0.1,1.1,0.5,1.5,0.9c0.4,0.5,0.6,1.1,0.6,1.8c0,0.6-0.1,1.1-0.4,1.5
			c-0.3,0.4-0.7,0.8-1.2,1c-0.5,0.2-1.2,0.3-2.1,0.3l3.8,4.9h-1.3l-3.8-4.9h-0.6v4.9h-1.1V187.6z M23.3,188.7v3.6l1.8,0
			c0.7,0,1.2-0.1,1.6-0.2c0.3-0.1,0.6-0.4,0.8-0.6c0.2-0.3,0.3-0.6,0.3-1c0-0.4-0.1-0.7-0.3-1c-0.2-0.3-0.4-0.5-0.8-0.6
			c-0.3-0.1-0.8-0.2-1.6-0.2H23.3z"/>
		<path d="M36.3,187.4c1.6,0,3,0.5,4,1.6c1.1,1.1,1.6,2.4,1.6,4c0,1.6-0.5,2.9-1.6,4c-1.1,1.1-2.4,1.6-4,1.6c-1.6,0-2.9-0.5-4-1.6
			c-1.1-1.1-1.6-2.4-1.6-3.9c0-1,0.2-2,0.7-2.8c0.5-0.9,1.2-1.6,2-2C34.4,187.6,35.3,187.4,36.3,187.4z M36.3,188.4
			c-0.8,0-1.5,0.2-2.2,0.6c-0.7,0.4-1.3,1-1.7,1.7c-0.4,0.7-0.6,1.5-0.6,2.3c0,1.3,0.4,2.3,1.3,3.2c0.9,0.9,1.9,1.3,3.2,1.3
			c0.8,0,1.6-0.2,2.3-0.6c0.7-0.4,1.3-0.9,1.6-1.6c0.4-0.7,0.6-1.5,0.6-2.3c0-0.8-0.2-1.6-0.6-2.3c-0.4-0.7-0.9-1.2-1.7-1.6
			C37.9,188.6,37.1,188.4,36.3,188.4z"/>
		<path d="M43.3,187.6h1.2l3.5,8.2l3.6-8.2h1.2l-4.6,10.6h-0.2L43.3,187.6z"/>
		<path d="M54.5,187.6h6.1v1h-5v3.3h5v1h-5v4.2h5v1h-6V187.6z"/>
		<path d="M62.4,198.3v-10.6h0.2l7.1,8.1v-8.1h1v10.6h-0.2l-7-8v8H62.4z"/>
		<path d="M73.2,187.6h1.1v10.6h-1.1V187.6z"/>
		<path d="M76.7,187.6h6.1v1h-5v3.3h5v1h-5v4.2h5v1h-6V187.6z"/>
		<path d="M84.6,198.3v-10.6h0.2l7.1,8.1v-8.1h1v10.6h-0.2l-7-8v8H84.6z"/>
		<path d="M94.5,188.7v-1h5.8v1H98v9.6h-1.1v-9.6H94.5z"/>
		<path d="M101.9,187.6h6.1v1h-5v3.3h5v1h-5v4.2h5v1h-6V187.6z"/>
		<path d="M114.8,198.3v-10.6h2.2c1.6,0,2.7,0.1,3.5,0.4c1,0.4,1.8,1,2.4,1.9c0.6,0.9,0.9,2,0.9,3.2c0,1.1-0.2,2-0.7,2.8
			c-0.5,0.8-1.1,1.4-1.8,1.8c-0.7,0.4-1.8,0.6-3.1,0.6H114.8z M115.8,197.3h1.2c1.5,0,2.5-0.1,3.1-0.3c0.8-0.3,1.4-0.7,1.9-1.4
			c0.5-0.7,0.7-1.5,0.7-2.5c0-1-0.2-1.9-0.7-2.6c-0.5-0.7-1.2-1.2-2.1-1.5c-0.7-0.2-1.8-0.3-3.3-0.3h-0.8V197.3z"/>
		<path d="M125.8,187.6h6.1v1h-5v3.3h5v1h-5v4.2h5v1h-6V187.6z"/>
		<path d="M147.7,189.6l-0.8,0.6c-0.5-0.6-1-1.1-1.7-1.4c-0.6-0.3-1.4-0.5-2.1-0.5c-0.8,0-1.6,0.2-2.4,0.6c-0.7,0.4-1.3,1-1.7,1.6
			c-0.4,0.7-0.6,1.5-0.6,2.3c0,1.3,0.4,2.4,1.3,3.2c0.9,0.9,2,1.3,3.4,1.3c1.5,0,2.7-0.6,3.7-1.7l0.8,0.6c-0.5,0.7-1.2,1.2-2,1.6
			c-0.8,0.4-1.7,0.6-2.7,0.6c-1.9,0-3.3-0.6-4.4-1.9c-0.9-1-1.4-2.3-1.4-3.8c0-1.6,0.5-2.9,1.6-3.9c1.1-1.1,2.5-1.6,4.1-1.6
			c1,0,1.9,0.2,2.7,0.6C146.6,188.4,147.2,188.9,147.7,189.6z"/>
		<path d="M154.9,187.4c1.6,0,3,0.5,4,1.6c1.1,1.1,1.6,2.4,1.6,4c0,1.6-0.5,2.9-1.6,4c-1.1,1.1-2.4,1.6-4,1.6c-1.6,0-2.9-0.5-4-1.6
			c-1.1-1.1-1.6-2.4-1.6-3.9c0-1,0.2-2,0.7-2.8c0.5-0.9,1.2-1.6,2-2C153,187.6,153.9,187.4,154.9,187.4z M155,188.4
			c-0.8,0-1.5,0.2-2.2,0.6c-0.7,0.4-1.3,1-1.7,1.7c-0.4,0.7-0.6,1.5-0.6,2.3c0,1.3,0.4,2.3,1.3,3.2c0.9,0.9,1.9,1.3,3.2,1.3
			c0.8,0,1.6-0.2,2.3-0.6c0.7-0.4,1.3-0.9,1.6-1.6c0.4-0.7,0.6-1.5,0.6-2.3c0-0.8-0.2-1.6-0.6-2.3c-0.4-0.7-0.9-1.2-1.7-1.6
			C156.5,188.6,155.8,188.4,155,188.4z"/>
		<path d="M162.3,198.3l1.5-10.6h0.2l4.3,8.7l4.3-8.7h0.2l1.5,10.6h-1l-1.1-7.6l-3.8,7.6h-0.3l-3.8-7.7l-1,7.7H162.3z"/>
		<path d="M176.4,187.6h1.1v6.4c0,0.8,0,1.2,0,1.4c0.1,0.4,0.2,0.8,0.4,1.1c0.2,0.3,0.5,0.5,0.9,0.7c0.4,0.2,0.8,0.3,1.2,0.3
			c0.4,0,0.7-0.1,1-0.2c0.3-0.1,0.6-0.4,0.8-0.6c0.2-0.3,0.4-0.6,0.5-1c0.1-0.3,0.1-0.8,0.1-1.7v-6.4h1.1v6.4c0,0.9-0.1,1.7-0.3,2.3
			c-0.2,0.6-0.6,1.1-1.1,1.5c-0.6,0.4-1.2,0.7-2,0.7c-0.9,0-1.6-0.2-2.2-0.6c-0.6-0.4-1-1-1.2-1.6c-0.1-0.4-0.2-1.2-0.2-2.2V187.6z"
			/>
		<path d="M186,198.3v-10.6h0.2l7.1,8.1v-8.1h1v10.6h-0.2l-7-8v8H186z"/>
		<path d="M196.8,187.6h1.1v10.6h-1.1V187.6z"/>
		<path d="M200.3,198.3v-10.6h2.2c1.6,0,2.7,0.1,3.5,0.4c1,0.4,1.8,1,2.4,1.9c0.6,0.9,0.9,2,0.9,3.2c0,1.1-0.2,2-0.7,2.8
			c-0.5,0.8-1.1,1.4-1.8,1.8c-0.7,0.4-1.8,0.6-3.1,0.6H200.3z M201.3,197.3h1.2c1.5,0,2.5-0.1,3.1-0.3c0.8-0.3,1.4-0.7,1.9-1.4
			c0.5-0.7,0.7-1.5,0.7-2.5c0-1-0.2-1.9-0.7-2.6c-0.5-0.7-1.2-1.2-2.1-1.5c-0.7-0.2-1.8-0.3-3.3-0.3h-0.8V197.3z"/>
		<path d="M215.7,187.6l5,10.6h-1.1l-1.7-3.5h-4.6l-1.7,3.5h-1.2l5-10.6H215.7z M215.5,189.9l-1.8,3.8h3.6L215.5,189.9z"/>
		<path d="M222.3,198.3v-10.6h2.2c1.6,0,2.7,0.1,3.5,0.4c1,0.4,1.8,1,2.4,1.9c0.6,0.9,0.9,2,0.9,3.2c0,1.1-0.2,2-0.7,2.8
			c-0.5,0.8-1.1,1.4-1.8,1.8c-0.7,0.4-1.8,0.6-3.1,0.6H222.3z M223.3,197.3h1.2c1.5,0,2.5-0.1,3.1-0.3c0.8-0.3,1.4-0.7,1.9-1.4
			c0.5-0.7,0.7-1.5,0.7-2.5c0-1-0.2-1.9-0.7-2.6c-0.5-0.7-1.2-1.2-2.1-1.5c-0.7-0.2-1.8-0.3-3.3-0.3h-0.8V197.3z"/>
		<path d="M233.3,187.6h6.1v1h-5v3.3h5v1h-5v4.2h5v1h-6V187.6z"/>
		<path d="M240.1,196.3l0.9-0.5c0.6,1.2,1.4,1.8,2.2,1.8c0.4,0,0.7-0.1,1-0.2c0.3-0.2,0.6-0.4,0.7-0.7c0.2-0.3,0.2-0.6,0.2-0.9
			c0-0.4-0.1-0.7-0.4-1c-0.3-0.5-0.9-1-1.8-1.7c-0.9-0.7-1.4-1.2-1.7-1.5c-0.4-0.5-0.6-1-0.6-1.6c0-0.5,0.1-0.9,0.3-1.3
			c0.2-0.4,0.5-0.7,0.9-0.9c0.4-0.2,0.8-0.3,1.3-0.3c0.5,0,1,0.1,1.4,0.4c0.4,0.2,0.9,0.7,1.4,1.4l-0.9,0.7c-0.4-0.5-0.7-0.9-1-1
			c-0.3-0.2-0.6-0.3-0.9-0.3c-0.4,0-0.8,0.1-1.1,0.4c-0.3,0.3-0.4,0.6-0.4,1c0,0.2,0,0.5,0.1,0.7c0.1,0.2,0.3,0.5,0.5,0.7
			c0.1,0.1,0.6,0.5,1.4,1.1c0.9,0.7,1.6,1.3,1.9,1.8c0.3,0.5,0.5,1.1,0.5,1.6c0,0.8-0.3,1.4-0.9,2c-0.6,0.6-1.3,0.9-2.1,0.9
			c-0.6,0-1.2-0.2-1.8-0.5C241.1,197.7,240.6,197.1,240.1,196.3z"/>
		<path d="M13.1,218.9l1.8-12.4h0.2l5,10.1l5-10.1h0.2l1.8,12.4h-1.2l-1.2-8.8l-4.4,8.8h-0.3l-4.4-8.9l-1.2,8.9H13.1z"/>
		<path d="M31,206.6h1.2v12.4H31V206.6z"/>
		<path d="M36.8,218.9v-12.4h0.3l8.2,9.5v-9.5h1.2v12.4h-0.3l-8.2-9.4v9.4H36.8z"/>
		<path d="M51.3,206.6h7.1v1.2h-5.8v3.9h5.8v1.2h-5.8v4.9h5.8v1.2h-7V206.6z"/>
		<path d="M62.3,206.6h2.5c1.4,0,2.3,0.1,2.8,0.2c0.7,0.2,1.3,0.5,1.8,1.1c0.5,0.6,0.7,1.2,0.7,2c0,0.7-0.2,1.3-0.5,1.8
			c-0.3,0.5-0.8,0.9-1.4,1.2c-0.6,0.3-1.4,0.4-2.4,0.4l4.4,5.7h-1.5l-4.4-5.7h-0.7v5.7h-1.2V206.6z M63.5,207.8v4.2l2.1,0
			c0.8,0,1.4-0.1,1.8-0.2c0.4-0.2,0.7-0.4,0.9-0.8c0.2-0.3,0.3-0.7,0.3-1.2c0-0.4-0.1-0.8-0.3-1.1c-0.2-0.3-0.5-0.6-0.9-0.7
			c-0.4-0.1-1-0.2-1.8-0.2H63.5z"/>
		<path d="M79.4,206.6l5.8,12.4h-1.3l-1.9-4.1h-5.3l-1.9,4.1h-1.4l5.8-12.4H79.4z M79.2,209.2l-2.1,4.5h4.2L79.2,209.2z"/>
		<path d="M86.5,216.6l1-0.6c0.7,1.4,1.6,2,2.6,2c0.4,0,0.8-0.1,1.2-0.3c0.4-0.2,0.6-0.5,0.8-0.8c0.2-0.3,0.3-0.7,0.3-1
			c0-0.4-0.1-0.8-0.4-1.2c-0.4-0.5-1.1-1.2-2.1-2c-1-0.8-1.7-1.3-1.9-1.7c-0.4-0.6-0.7-1.2-0.7-1.9c0-0.5,0.1-1,0.4-1.5
			c0.3-0.4,0.6-0.8,1.1-1c0.5-0.3,1-0.4,1.5-0.4c0.6,0,1.1,0.1,1.6,0.4c0.5,0.3,1,0.8,1.6,1.6l-1,0.8c-0.5-0.6-0.9-1-1.2-1.2
			c-0.3-0.2-0.7-0.3-1.1-0.3c-0.5,0-0.9,0.2-1.2,0.5c-0.3,0.3-0.5,0.7-0.5,1.1c0,0.3,0.1,0.5,0.2,0.8c0.1,0.3,0.3,0.5,0.6,0.8
			c0.2,0.2,0.7,0.6,1.6,1.2c1.1,0.8,1.8,1.5,2.2,2.1c0.4,0.6,0.6,1.2,0.6,1.9c0,0.9-0.3,1.7-1,2.3c-0.7,0.7-1.5,1-2.5,1
			c-0.8,0-1.4-0.2-2-0.6C87.6,218.2,87,217.5,86.5,216.6z"/>
		<path d="M104.3,206.6h2.5c1.4,0,2.3,0.1,2.8,0.2c0.7,0.2,1.3,0.5,1.8,1.1c0.5,0.6,0.7,1.2,0.7,2c0,0.7-0.2,1.3-0.5,1.8
			c-0.3,0.5-0.8,0.9-1.4,1.2c-0.6,0.3-1.4,0.4-2.4,0.4l4.4,5.7h-1.5l-4.4-5.7h-0.7v5.7h-1.2V206.6z M105.5,207.8v4.2l2.1,0
			c0.8,0,1.4-0.1,1.8-0.2c0.4-0.2,0.7-0.4,0.9-0.8c0.2-0.3,0.3-0.7,0.3-1.2c0-0.4-0.1-0.8-0.3-1.1c-0.2-0.3-0.5-0.6-0.9-0.7
			c-0.4-0.1-1-0.2-1.8-0.2H105.5z"/>
		<path d="M117.1,206.6h7.1v1.2h-5.8v3.9h5.8v1.2h-5.8v4.9h5.8v1.2h-7V206.6z"/>
		<path d="M127.1,216.6l1-0.6c0.7,1.4,1.6,2,2.6,2c0.4,0,0.8-0.1,1.2-0.3c0.4-0.2,0.6-0.5,0.8-0.8c0.2-0.3,0.3-0.7,0.3-1
			c0-0.4-0.1-0.8-0.4-1.2c-0.4-0.5-1.1-1.2-2.1-2c-1-0.8-1.7-1.3-1.9-1.7c-0.4-0.6-0.7-1.2-0.7-1.9c0-0.5,0.1-1,0.4-1.5
			c0.3-0.4,0.6-0.8,1.1-1c0.5-0.3,1-0.4,1.5-0.4c0.6,0,1.1,0.1,1.6,0.4c0.5,0.3,1,0.8,1.6,1.6l-1,0.8c-0.5-0.6-0.9-1-1.2-1.2
			c-0.3-0.2-0.7-0.3-1.1-0.3c-0.5,0-0.9,0.2-1.2,0.5c-0.3,0.3-0.5,0.7-0.5,1.1c0,0.3,0.1,0.5,0.2,0.8c0.1,0.3,0.3,0.5,0.6,0.8
			c0.2,0.2,0.7,0.6,1.6,1.2c1.1,0.8,1.8,1.5,2.2,2.1c0.4,0.6,0.6,1.2,0.6,1.9c0,0.9-0.3,1.7-1,2.3c-0.7,0.7-1.5,1-2.5,1
			c-0.8,0-1.4-0.2-2-0.6C128.2,218.2,127.6,217.5,127.1,216.6z"/>
		<path d="M138.7,206.6h2.5c1.4,0,2.4,0.1,2.9,0.2c0.7,0.2,1.3,0.5,1.7,1.1c0.4,0.5,0.7,1.2,0.7,2c0,0.8-0.2,1.5-0.7,2
			c-0.4,0.5-1,0.9-1.8,1.1c-0.6,0.1-1.6,0.2-3.1,0.2h-0.9v5.7h-1.2V206.6z M139.9,207.8v4.2l2.1,0c0.8,0,1.5-0.1,1.9-0.2
			c0.4-0.2,0.7-0.4,0.9-0.7c0.2-0.3,0.3-0.7,0.3-1.2c0-0.4-0.1-0.8-0.3-1.1c-0.2-0.3-0.5-0.6-0.9-0.7c-0.4-0.1-1-0.2-1.8-0.2H139.9z
			"/>
		<path d="M155.8,206.2c1.9,0,3.4,0.6,4.7,1.9c1.3,1.2,1.9,2.8,1.9,4.6c0,1.8-0.6,3.3-1.9,4.6c-1.3,1.3-2.8,1.9-4.6,1.9
			c-1.8,0-3.4-0.6-4.6-1.9c-1.3-1.3-1.9-2.8-1.9-4.6c0-1.2,0.3-2.3,0.9-3.3c0.6-1,1.4-1.8,2.3-2.4
			C153.5,206.5,154.6,206.2,155.8,206.2z M155.8,207.4c-0.9,0-1.8,0.2-2.6,0.7c-0.8,0.5-1.5,1.1-1.9,1.9c-0.5,0.8-0.7,1.7-0.7,2.7
			c0,1.5,0.5,2.7,1.5,3.7s2.2,1.5,3.7,1.5c1,0,1.8-0.2,2.7-0.7c0.8-0.5,1.5-1.1,1.9-1.9c0.5-0.8,0.7-1.7,0.7-2.7
			c0-1-0.2-1.9-0.7-2.7c-0.5-0.8-1.1-1.4-1.9-1.9C157.6,207.7,156.7,207.4,155.8,207.4z"/>
		<path d="M166.6,218.9v-12.4h0.3l8.2,9.5v-9.5h1.2v12.4H176l-8.2-9.4v9.4H166.6z"/>
		<path d="M180.4,216.6l1-0.6c0.7,1.4,1.6,2,2.6,2c0.4,0,0.8-0.1,1.2-0.3c0.4-0.2,0.6-0.5,0.8-0.8c0.2-0.3,0.3-0.7,0.3-1
			c0-0.4-0.1-0.8-0.4-1.2c-0.4-0.5-1.1-1.2-2.1-2c-1-0.8-1.7-1.3-1.9-1.7c-0.4-0.6-0.7-1.2-0.7-1.9c0-0.5,0.1-1,0.4-1.5
			c0.3-0.4,0.6-0.8,1.1-1c0.5-0.3,1-0.4,1.5-0.4c0.6,0,1.1,0.1,1.6,0.4c0.5,0.3,1,0.8,1.6,1.6l-1,0.8c-0.5-0.6-0.9-1-1.2-1.2
			c-0.3-0.2-0.7-0.3-1.1-0.3c-0.5,0-0.9,0.2-1.2,0.5c-0.3,0.3-0.5,0.7-0.5,1.1c0,0.3,0.1,0.5,0.2,0.8c0.1,0.3,0.3,0.5,0.6,0.8
			c0.2,0.2,0.7,0.6,1.6,1.2c1.1,0.8,1.8,1.5,2.2,2.1c0.4,0.6,0.6,1.2,0.6,1.9c0,0.9-0.3,1.7-1,2.3c-0.7,0.7-1.5,1-2.5,1
			c-0.8,0-1.4-0.2-2-0.6C181.5,218.2,180.9,217.5,180.4,216.6z"/>
		<path d="M197.7,206.6l5.8,12.4h-1.3l-1.9-4.1h-5.3l-1.9,4.1h-1.4l5.8-12.4H197.7z M197.5,209.2l-2.1,4.5h4.2L197.5,209.2z"/>
		<path d="M207.5,206.6h2.4c1,0,1.7,0.1,2.3,0.3c0.5,0.2,0.9,0.6,1.2,1.1c0.3,0.5,0.5,1,0.5,1.6c0,0.5-0.1,1-0.4,1.5
			c-0.3,0.5-0.7,0.8-1.2,1.1c0.6,0.2,1.1,0.5,1.5,0.8c0.3,0.3,0.6,0.6,0.8,1.1c0.2,0.4,0.3,0.9,0.3,1.4c0,1-0.4,1.8-1.1,2.5
			c-0.7,0.7-1.7,1-2.9,1h-3.4V206.6z M208.7,207.8v4h0.7c0.9,0,1.5-0.1,1.9-0.2c0.4-0.2,0.7-0.4,1-0.8c0.2-0.3,0.4-0.7,0.4-1.1
			c0-0.6-0.2-1-0.6-1.3c-0.4-0.3-1-0.5-1.9-0.5H208.7z M208.7,213v4.7h1.5c0.9,0,1.6-0.1,2-0.3c0.4-0.2,0.8-0.5,1-0.8
			c0.3-0.4,0.4-0.8,0.4-1.2c0-0.5-0.2-1-0.5-1.4c-0.4-0.4-0.9-0.7-1.5-0.8c-0.4-0.1-1.2-0.2-2.2-0.2H208.7z"/>
		<path d="M219,206.6h1.2v11.2h4.8v1.2h-6V206.6z"/>
		<path d="M228.7,206.6h7.1v1.2h-5.8v3.9h5.8v1.2h-5.8v4.9h5.8v1.2h-7V206.6z"/>
		<path d="M238.4,216.6l1-0.6c0.7,1.4,1.6,2,2.6,2c0.4,0,0.8-0.1,1.2-0.3c0.4-0.2,0.6-0.5,0.8-0.8c0.2-0.3,0.3-0.7,0.3-1
			c0-0.4-0.1-0.8-0.4-1.2c-0.4-0.5-1.1-1.2-2.1-2c-1-0.8-1.7-1.3-1.9-1.7c-0.4-0.6-0.7-1.2-0.7-1.9c0-0.5,0.1-1,0.4-1.5
			c0.3-0.4,0.6-0.8,1.1-1c0.5-0.3,1-0.4,1.5-0.4c0.6,0,1.1,0.1,1.6,0.4c0.5,0.3,1,0.8,1.6,1.6l-1,0.8c-0.5-0.6-0.9-1-1.2-1.2
			c-0.3-0.2-0.7-0.3-1.1-0.3c-0.5,0-0.9,0.2-1.2,0.5c-0.3,0.3-0.5,0.7-0.5,1.1c0,0.3,0.1,0.5,0.2,0.8c0.1,0.3,0.3,0.5,0.6,0.8
			c0.2,0.2,0.7,0.6,1.6,1.2c1.1,0.8,1.8,1.5,2.2,2.1c0.4,0.6,0.6,1.2,0.6,1.9c0,0.9-0.3,1.7-1,2.3c-0.7,0.7-1.5,1-2.5,1
			c-0.8,0-1.4-0.2-2-0.6C239.4,218.2,238.9,217.5,238.4,216.6z"/>
	</g>
</g>
</svg>
