<?xml version="1.0" encoding="utf-8"?>
<!-- Generator: Adobe Illustrator 25.0.0, SVG Export Plug-In . SVG Version: 6.00 Build 0)  -->
<svg version="1.1" id="Capa_1" xmlns="http://www.w3.org/2000/svg" xmlns:xlink="http://www.w3.org/1999/xlink" x="0px" y="0px"
	 viewBox="0 0 1269.9 266.6" style="enable-background:new 0 0 1269.9 266.6;" xml:space="preserve">
<style type="text/css">
	.st0{fill:#CE0E2D;}
	.st1{fill:#FFFFFF;}
</style>
<path class="st0" d="M13.6,46.4h1244.9v209.7H13.6V46.4z M1247.4,14.9c7.2,0,13.1,5.8,13.1,13.1c0,0,0,0,0,0
	c0,7.2-5.8,13.1-13.1,13.1c0,0,0,0,0,0c-7.2,0-13.1-5.8-13.1-13.1c0,0,0,0,0,0C1234.3,20.8,1240.1,14.9,1247.4,14.9
	C1247.3,14.9,1247.4,14.9,1247.4,14.9 M1247.4,17.7c-5.4,0-9.7,3.9-9.7,10.2c0,6.3,4.3,10.2,9.7,10.2c5.4,0,9.8-3.9,9.8-10.2
	C1257.1,21.7,1252.8,17.7,1247.4,17.7z M1245.3,26.6h2.7c1.2,0,1.9-0.3,1.9-1.7c0-1.6-0.9-1.7-1.9-1.7h-2.7V26.6z M1245.2,35.1h-3.1
	V20.7h7c2.7,0,4.3,1.3,4.3,4.1c0,2.8-1.6,3.9-3.9,4.1l3.7,6.2h-3.5l-3.2-6h-1.2L1245.2,35.1z"/>
<g>
	<path class="st1" d="M336.9,87.7h30.3l-39.5,61.7l47.3,66.9H339l-41.8-61.1H295v61.1h-30.9V87.7H295v61.6h1.8L336.9,87.7z
		 M415.3,113.4v23.8h46.6V163h-46.1v26.9H464v26.3h-79.6V87.7H464v25.7H415.3z M481.5,87.8h37.9l40.5,81.5h0.6V87.7h30.2v128.5
		h-36.8L511.4,129h-1v87.2h-28.8V87.8z M653.1,168.1h0.3l20.2-80.4H699l23.3,80.5h0.3l16.4-80.5h30.3l-29.9,128.5h-30.6l-22.6-76.8
		H686l-19.1,76.8h-29.5L602.5,87.8H633L653.1,168.1z M942.8,144.5H961c10.9,0,16.3-5,16.2-15c-0.1-10.4-5.2-13.8-16.1-13.8h-18.3
		V144.5z M1017.5,216.2h-36.3l-37.5-57.6h-0.8v57.6h-28.8V87.8H965c25.5,0,45,12.1,44.8,39.7c-0.1,16.7-8,33.9-26.3,37.1
		L1017.5,216.2z M1074.6,216.2h-32V113.4h-26.8V87.8h83.9v25.6h-25.2V216.2z M1186.4,136.8V87.8h31.7v128.5h-31.7v-53.6h-41.9v53.6
		h-30.3V87.8h30.3v49.1H1186.4z M22.6,55.2h199.3v192.5H22.6V55.2z M835.6,190.4c-21.1,0-38.3-17.7-38.3-39.6s17.1-39.6,38.3-39.6
		c21.1,0,38.3,17.7,38.3,39.6C873.9,172.7,856.8,190.4,835.6,190.4 M835.9,81.1c-38.5,0-69.7,31.2-69.7,69.7
		c0,38.5,31.2,69.7,69.7,69.7s69.7-31.2,69.7-69.7C905.6,112.3,874.4,81.1,835.9,81.1L835.9,81.1z"/>
</g>
<path class="st0" d="M161.5,126.2c0,21.3-17.3,38.6-38.6,38.6s-38.6-17.3-38.6-38.6s17.3-38.6,38.6-38.6S161.5,104.9,161.5,126.2
	 M122.9,168c-23.1,0-41.7-18.7-41.7-41.8c0-23.1,18.7-41.7,41.7-41.7c23.1,0,41.7,18.7,41.7,41.7C164.7,149.3,146,168,122.9,168z
	 M154.2,84.5V69.2c-3.2-1.2-6.5-2.3-9.9-3.1v12.6c-2.4-1.1-5-2-7.5-2.7V64.5c-3.3-0.5-6.6-0.9-9.9-1v10.7c-1.3-0.1-2.7-0.2-4-0.2
	c-1.2,0-2.4,0.1-3.6,0.1V63.5c-3.3,0.1-6.6,0.4-9.9,0.9v11.4c-2.6,0.7-5.1,1.6-7.6,2.7V66c-3.3,0.8-6.6,1.9-9.9,3.1v15.2
	c-12.8,9.5-21.2,24.8-21.2,42c0,17.2,8.3,32.5,21.2,42v65.3c3.2,1.2,6.5,2.2,9.9,3.1v-62.6c2.4,1.1,5,2,7.6,2.7v61.5
	c3.2,0.5,6.5,0.8,9.9,0.9v-60.8c1.2,0.1,2.4,0.1,3.6,0.1c1.4,0,2.7-0.1,4-0.2v60.8c3.3-0.1,6.6-0.5,9.9-1v-61.5
	c2.6-0.7,5.1-1.6,7.5-2.7v62.7c3.3-0.8,6.6-1.9,9.9-3.1V168c12.7-9.5,20.8-24.7,20.8-41.7S166.9,94,154.2,84.5L154.2,84.5z"/>
<path class="st1" d="M125.6,96.4h6.3l-8.2,12.9l9.9,13.9H126l-8.7-12.7h-0.5v12.7h-6.5V96.4h6.5v12.8h0.4L125.6,96.4z M115.3,145.5
	L115.3,145.5l4.2-16.5h5.2l4.8,16.6h0.1l3.4-16.6h6.2l-6.2,26.4h-6.3l-4.7-15.8h-0.1l-3.9,15.8h-6.1l-7.2-26.4h6.3L115.3,145.5z"/>
</svg>
