<?xml version="1.0" encoding="utf-8"?>
<!-- Generator: Adobe Illustrator 25.0.0, SVG Export Plug-In . SVG Version: 6.00 Build 0)  -->
<svg version="1.1" id="Capa_1" xmlns="http://www.w3.org/2000/svg" xmlns:xlink="http://www.w3.org/1999/xlink" x="0px" y="0px"
	 viewBox="0 0 398 224.7" style="enable-background:new 0 0 398 224.7;" xml:space="preserve">
<style type="text/css">
	.st0{fill:none;stroke:#161413;stroke-width:0.354;}
	.st1{fill:#161413;}
	.st2{fill:#858788;}
	.st3{fill:#B4B6B8;}
	.st4{fill:#FFFFFF;}
</style>
<g>
	<g transform="translate(92.833, 103.611)">
		<path class="st0" d="M123.2,56.4l38.1,58.5h-31.1l-4.2-6.5H88.4l-4.2,6.5H53.1l38.1-58.5H123.2"/>
	</g>
	<g transform="translate(1.1377, 1.32324)">
		<path class="st1" d="M27.9,217.2c-0.8-6.7-1.2-13.5-1.2-20.4c0-95.1,77.1-172.1,172.1-172.1c95.1,0,172.1,77.1,172.1,172.1
			c0,6.9-0.4,13.7-1.2,20.4h20c0.7-6.7,1.1-13.5,1.1-20.4c0-106.1-86-192.1-192.1-192.1C92.7,4.7,6.7,90.7,6.7,196.7
			c0,6.9,0.4,13.7,1.1,20.4H27.9"/>
	</g>
	<g transform="translate(1.1377, 1.32324)">
		<path class="st0" d="M27.9,217.2L27,207l-0.3-10.3l0.2-8.9l0.7-8.7l1.1-8.6l1.5-8.5l1.9-8.3l2.3-8.2l2.7-8l3.1-7.8l3.4-7.6
			l3.8-7.4l4.1-7.2l4.5-7l4.8-6.7l5.1-6.5l5.4-6.2l5.7-6l6-5.7l6.2-5.4l6.5-5.1l6.8-4.8l7-4.5l7.2-4.1l7.4-3.8l7.6-3.4l7.8-3.1
			l8-2.7l8.2-2.3l8.3-1.9l8.5-1.5l8.6-1.1l8.7-0.7l8.9-0.2l8.9,0.2l8.7,0.7l8.6,1.1l8.5,1.5l8.3,1.9l8.2,2.3l8,2.7l7.8,3.1l7.6,3.4
			l7.4,3.8l7.2,4.1l7,4.5l6.7,4.8l6.5,5.1l6.2,5.4l6,5.7l5.7,6l5.4,6.2l5.1,6.5l4.8,6.7l4.5,7l4.1,7.2l3.8,7.4l3.4,7.6l3.1,7.8
			l2.7,8l2.3,8.2l1.9,8.3l1.5,8.5l1.1,8.6l0.7,8.7l0.2,8.9l-0.3,10.3l-0.9,10.1h20l1.1-20.4l-0.2-9.9l-0.7-9.8l-1.2-9.6L387,158
			l-2.1-9.3l-2.6-9.1l-3-8.9l-3.4-8.7l-3.8-8.5l-4.2-8.3l-4.6-8l-5-7.8l-5.4-7.5l-5.7-7.3l-6-7l-6.4-6.7l-6.7-6.4l-7-6l-7.3-5.7
			l-7.5-5.4l-7.8-5l-8-4.6l-8.3-4.2l-8.5-3.8l-8.7-3.4l-8.9-3l-9.1-2.6l-9.3-2.1l-9.5-1.7l-9.6-1.2l-9.8-0.7l-9.9-0.2l-9.9,0.2
			l-9.8,0.7l-9.6,1.2l-9.5,1.7l-9.3,2.1l-9.1,2.6l-8.9,3l-8.7,3.4l-8.5,3.8l-8.3,4.2l-8,4.6l-7.8,5l-7.5,5.4l-7.3,5.7l-7,6L63,60.9
			l-6.4,6.7l-6,7l-5.7,7.3l-5.4,7.5l-5,7.8l-4.6,8l-4.2,8.3l-3.8,8.5l-3.4,8.7l-3,8.9l-2.6,9.1l-2.1,9.3L9,167.5l-1.2,9.6L7,186.9
			l-0.2,9.9L7,207l0.8,10.1H27.9"/>
	</g>
	<g transform="translate(3.25, 3.5)">
		<path class="st2" d="M188.1,5.8v0.4h-6v0.4h-4.9v0.4h-3v0.4h-3v0.4h-2.6V8h-2.3v0.4H164v0.4h-2.3v0.4h-1.9v0.4H158v0.4h-1.9v0.4
			h-1.5v0.4h-1.5V11h-1.9v0.4h-1.5v0.4h-1.5v0.4h-1.1v0.4h-1.5v0.4h-1.1v0.4h-1.5v0.4h-1.1v0.4h-1.5v0.4h-1.1v0.4H138v0.4h-1.1v0.4
			h-1.1v0.4h-1.1v0.4h-1.1v0.4h-1.1v0.4h-0.8v0.4h-1.1v0.4h-0.8v0.4h-1.1v0.4h-1.1V19h-0.8v0.4h-1.1v0.4h-0.8v0.4h-1.1v0.4H123v0.4
			h-0.8v0.4h-1.1v0.4h-0.8V22h-0.8v0.4h-0.8v0.4h-0.8v0.4H117v0.4h-0.8v0.4h-0.8v0.4h-0.8v0.4H114V25h-0.8v0.4h-0.8v0.4h-0.8v0.4
			h-0.8v0.4h-0.8v0.4h-0.8v0.4h-0.8v0.4h-0.8V28h-0.8v0.4h-0.8v0.4h-0.4v0.4h-0.8v0.4h-0.8v0.4h-0.8v0.4h-0.4v0.4h-0.8V31h-0.8v0.4
			h-0.8v0.4h-0.4v0.4H100v0.4h-0.8v0.4h-0.8v0.4h-0.4v0.4h-0.8V34H97v0.4h-0.8v0.4h-0.4v0.4h-0.8v0.4h-0.4v0.4H94v0.4h-0.8v0.4h-0.4
			V37h-0.8v0.4h-0.4v0.4H91v0.4h-0.4v0.4h-0.8v0.4h-0.4v0.4h-0.4v0.4h-0.8V40H88v0.4h-0.8v0.4h-0.4v0.4h-0.4v0.4h-0.8v0.4h-0.4v0.4
			h-0.8v0.4h-0.4V43h-0.8v0.4h-0.4v0.4h-0.4v0.4h-0.4v0.4h-0.8v0.4h-0.4v0.4h-0.4v0.4h-0.4v0.4h-0.8v0.4h-0.4v0.4h-0.4v0.4h-0.8v0.4
			h-0.4v0.4h-0.4v0.4h-0.4v0.4h-0.8v0.4h-0.4v0.4h-0.4v0.4h-0.4v0.4h-0.4v0.4h-0.4v0.4h-0.8v0.4h-0.4v0.4h-0.4v0.4h-0.4v0.4h-0.4
			v0.4h-0.4v0.4h-0.4v0.4h-0.8V54h-0.4v0.4h-0.4v0.4h-0.4v0.4h-0.4v0.4h-0.4v0.4h-0.4v0.4H68v0.4h-0.4V57h-0.4v0.4h-0.4v0.4h-0.4
			v0.4h-0.4v0.4h-0.8v0.4H65v0.4h-0.4v0.4h-0.4V60h-0.4v0.4h-0.4v0.4h-0.4v0.4h-0.4v0.4h-0.4v0.4H62v0.4h-0.4v0.4h-0.4V63h-0.4v0.4
			h-0.4v0.8h-0.4v0.4h-0.4v0.4h-0.4v0.4H59v0.4h-0.4V66h-0.4v0.4h-0.4v0.4h-0.4v0.4h-0.4v0.4h-0.4v0.4h-0.4v0.4H56v0.4h-0.4v0.8
			h-0.4v0.4h-0.4v0.4h-0.4v0.4h-0.4v0.4h-0.4v0.4h-0.4V72H53v0.4h-0.4v0.4h-0.4v0.4h-0.4v0.4h-0.4v0.4h-0.4v0.4h-0.4V75h-0.4v0.4H50
			v0.4h-0.4v0.8h-0.4v0.4h-0.4v0.4h-0.4v0.4h-0.4v0.8h-0.4v0.4h-0.4v0.4H47v0.4h-0.4v0.8h-0.4v0.4h-0.4v0.4h-0.4v0.8h-0.4v0.4h-0.4
			v0.4h-0.4v0.8h-0.4v0.4h-0.4v0.8h-0.4v0.4h-0.4v0.4h-0.4V86h-0.4v0.4h-0.4v0.8h-0.4v0.4h-0.4v0.4h-0.4v0.8h-0.4V89h-0.4v0.8h-0.4
			v0.4h-0.4v0.8h-0.4v0.8h-0.4V92h-0.4v0.8h-0.4v0.4h-0.4v0.8h-0.4v0.4h-0.4V95H36v0.4h-0.4v0.8h-0.4v0.8h-0.4v0.4h-0.4V98h-0.4v0.8
			h-0.4v0.8h-0.4v0.4H33v0.8h-0.4v0.8h-0.4v0.8h-0.4v0.4h-0.4v0.8h-0.4v0.8h-0.4v0.8h-0.4v0.4H30v0.8h-0.4v0.8h-0.4v0.8h-0.4v0.8
			h-0.4v0.8h-0.4v0.8h-0.4v0.8h-0.4v0.8H27v0.8h-0.4v0.8h-0.4v0.8h-0.4v0.8h-0.4v1.1h-0.4v0.8h-0.4v0.8h-0.4v0.8H24v1.1h-0.4v0.8
			h-0.4v0.8h-0.4v0.8h-0.4v1.1h-0.4v0.8h-0.4v1.1h-0.4v0.8H21v1.1h-0.4v0.8h-0.4v1.1h-0.4v0.8h-0.4v1.1h-0.4v1.1h-0.4v1.1h-0.4v1.1
			H18v1.1h-0.4v1.1h-0.4v1.1h-0.4v1.1h-0.4v1.1h-0.4v1.1h-0.4v1.5h-0.4v1.1H15v1.5h-0.4v1.1h-0.4v1.5h-0.4v1.5h-0.4v1.5h-0.4v1.9
			h-0.4v1.5h-0.4v1.5h-0.4v1.9h-0.4v1.9h-0.4v2.3h-0.4v1.9h-0.4v2.3h-0.4v2.6H9.7v2.6H9.3v3H8.9v3.8H8.6v4.9H8.2v8.3H7.8v7.5h0.4
			v8.3h0.4v6h13.6v-4.1h-0.4v-7.9h-0.4v-14.3h0.4v-4.9h0.4v-4.5h0.4v-3h0.4v-3h0.4v-2.6h0.4v-1.9H24v-2.3h0.4v-1.9h0.4V159h0.4v-1.5
			h0.4v-1.9h0.4v-1.5h0.4v-1.5h0.4v-1.9H27v-1.1h0.4v-1.5h0.4v-1.1h0.4v-1.5h0.4v-1.1h0.4v-1.5h0.4v-1.1h0.4v-1.1H30v-1.1h0.4v-1.1
			h0.4v-1.1h0.4V136h0.4v-0.8h0.4v-1.1h0.4V133h0.4v-0.8H33v-1.1h0.4v-0.8h0.4v-1.1h0.4v-1.1h0.4v-0.8h0.4v-1.1h0.4v-0.8h0.4v-0.8
			H36V124h0.4v-0.8h0.4v-1.1h0.4v-0.8h0.4v-0.8h0.4v-0.8h0.4v-0.8h0.4v-1.1h0.4v-0.4h0.4v-0.8h0.4v-0.8h0.4v-0.8h0.4v-0.8h0.4v-0.8
			h0.4v-0.8h0.4v-0.8h0.4v-0.8h0.4v-0.8h0.4V110h0.4v-0.4h0.4v-0.8h0.4v-0.8h0.4v-0.8h0.4V107h0.4v-0.8h0.4v-0.8h0.4v-0.8h0.4v-0.4
			h0.4v-0.8H47v-0.8h0.4v-0.4h0.4v-0.8h0.4v-0.4h0.4v-0.8h0.4v-0.4h0.4v-0.8h0.4v-0.8H50v-0.4h0.4v-0.8h0.4v-0.4h0.4v-0.8h0.4v-0.4
			h0.4v-0.8h0.4V95h0.4v-0.4H53v-0.8h0.4v-0.4h0.4v-0.8h0.4v-0.4h0.4V92h0.4v-0.8h0.4v-0.4h0.4v-0.8H56v-0.4h0.4v-0.4h0.4v-0.8h0.4
			v-0.4h0.4v-0.4h0.4v-0.4h0.4v-0.8h0.4v-0.4H59V86h0.4v-0.8h0.4v-0.4h0.4v-0.4h0.4v-0.4h0.4v-0.8h0.4v-0.4h0.4v-0.4H62v-0.4h0.4
			v-0.4h0.4v-0.4h0.4v-0.8h0.4v-0.4h0.4v-0.4h0.4v-0.4h0.4v-0.4H65v-0.4h0.4V78h0.4v-0.4h0.4v-0.4h0.4v-0.4h0.4v-0.4h0.4v-0.4h0.4
			v-0.4H68v-0.4h0.4V75h0.4v-0.4h0.4v-0.4h0.4v-0.4h0.4v-0.8h0.4v-0.4h0.4v-0.4H71V72h0.4v-0.4h0.4v-0.4h0.4v-0.4h0.4v-0.4h0.4v-0.4
			h0.4v-0.4h0.4v-0.4h0.4V69h0.4v-0.4h0.4v-0.4h0.4v-0.4h0.8v-0.4h0.4v-0.4h0.4v-0.4h0.4v-0.4h0.4V66h0.4v-0.4h0.4v-0.4h0.4v-0.4
			h0.4v-0.4h0.4v-0.4h0.4v-0.4h0.4v-0.4h0.8V63h0.4v-0.4h0.4v-0.4H82v-0.4h0.4v-0.4h0.4v-0.4h0.4v-0.4h0.8v-0.4h0.4V60h0.4v-0.4H85
			v-0.4h0.4v-0.4h0.8v-0.4h0.4v-0.4h0.4v-0.4h0.4v-0.4H88V57h0.4v-0.4h0.4v-0.4h0.8v-0.4h0.4v-0.4h0.4v-0.4h0.4v-0.4h0.8v-0.4h0.4
			V54h0.4v-0.4h0.8v-0.4h0.4v-0.4h0.4v-0.4h0.8v-0.4h0.4v-0.4h0.8v-0.4h0.4v-0.4h0.4v-0.4H97v-0.4h0.4v-0.4h0.8v-0.4h0.4v-0.4h0.8
			v-0.4h0.4v-0.4h0.8v-0.4h0.4v-0.4h0.8v-0.4h0.4v-0.4h0.8v-0.4h0.8v-0.4h0.4v-0.4h0.8v-0.4h0.4v-0.4h0.8v-0.4h0.4v-0.4h0.8v-0.4
			h0.8v-0.4h0.8V43h0.4v-0.4h0.8v-0.4h0.8v-0.4h0.8v-0.4h0.4v-0.4h0.8v-0.4h0.8v-0.4h0.8V40h0.8v-0.4h0.8v-0.4h0.8v-0.4h0.4v-0.4
			h0.8v-0.4h0.8v-0.4h0.8v-0.4h0.8V37h0.8v-0.4h0.8v-0.4h0.8v-0.4h1.1v-0.4h0.8v-0.4h0.8v-0.4h0.8v-0.4h0.8V34h1.1v-0.4h0.8v-0.4
			h0.8v-0.4h1.1v-0.4h0.8v-0.4h1.1v-0.4h0.8v-0.4h1.1V31h0.8v-0.4h1.1v-0.4h0.8v-0.4h1.1v-0.4h1.1v-0.4h1.1v-0.4h1.1v-0.4h1.1V28
			h1.1v-0.4h1.1v-0.4h1.1v-0.4h1.1v-0.4h1.5v-0.4h1.1v-0.4h1.5v-0.4h1.1V25h1.5v-0.4h1.5v-0.4h1.5v-0.4h1.9v-0.4h1.5v-0.4h1.5v-0.4
			h1.9v-0.4h2.3V22h2.3v-0.4h1.9v-0.4h2.6v-0.4h3v-0.4h2.6v-0.4h4.1v-0.4h4.9v-0.4h21.1v0.4h4.9v0.4h3.8v0.4h3v0.4h3v0.4h2.6v0.4
			h1.9V22h2.3v0.4h1.9v0.4h1.9v0.4h1.9v0.4h1.5v0.4h1.5v0.4h1.9v0.4h1.5V25h1.1v0.4h1.5v0.4h1.1v0.4h1.5v0.4h1.1v0.4h1.5v0.4h1.1
			v0.4h1.1V28h1.1v0.4h1.1v0.4h1.1v0.4h1.1v0.4h1.1v0.4h0.8v0.4h1.1v0.4h0.8V31h1.1v0.4h0.8v0.4h1.1v0.4h1.1v0.4h0.8v0.4h1.1v0.4
			h0.8v0.4h0.8V34h0.8v0.4h0.8v0.4h1.1v0.4h0.8v0.4h0.8v0.4h0.8v0.4h0.8v0.4h0.8V37h0.8v0.4h0.8v0.4h0.8v0.4h0.8v0.4h0.8v0.4h0.8
			v0.4h0.8v0.4h0.8V40h0.8v0.4h0.8v0.4h0.8v0.4h0.4v0.4h0.8v0.4h0.8v0.4h0.4v0.4h0.8V43h0.8v0.4h0.8v0.4h0.4v0.4h0.8v0.4h0.8v0.4
			h0.4v0.4h0.8v0.4h0.8v0.4h0.4v0.4h0.8v0.4h0.4v0.4h0.8v0.4h0.4v0.4h0.8v0.4h0.4v0.4h0.8v0.4h0.8v0.4h0.4v0.4h0.4v0.4h0.8v0.4h0.4
			v0.4h0.8v0.4h0.4v0.4h0.4v0.4h0.8v0.4h0.4v0.4h0.8v0.4h0.4v0.4h0.4V54h0.8v0.4h0.4v0.4h0.4v0.4h0.8v0.4h0.4v0.4h0.4v0.4h0.4v0.4
			h0.8V57h0.4v0.4h0.4v0.4h0.4v0.4h0.8v0.4h0.4v0.4h0.4v0.4h0.8v0.4h0.4V60h0.4v0.4h0.4v0.4h0.4v0.4h0.4v0.4h0.4v0.4h0.8v0.4h0.4
			v0.4h0.4V63h0.4v0.4h0.4v0.4h0.4v0.4h0.8v0.4h0.4v0.4h0.4v0.4h0.4v0.4h0.4V66h0.4v0.4h0.4v0.4h0.4v0.4h0.4v0.4h0.4v0.4h0.4v0.4
			h0.4v0.4h0.4V69h0.4v0.4h0.4v0.4h0.4v0.4h0.4v0.4h0.4v0.4h0.4v0.4h0.4v0.4h0.4V72h0.4v0.4h0.4v0.4h0.4v0.4h0.4v0.4h0.4v0.4h0.4
			v0.4h0.4v0.4h0.4V75h0.4v0.4h0.4v0.4h0.4v0.4h0.4v0.4h0.4v0.4h0.4v0.8h0.4V78h0.4v0.4h0.4v0.4h0.4v0.4h0.4v0.4h0.4v0.8h0.4v0.4
			h0.4v0.4h0.4v0.4h0.4v0.4h0.4v0.4h0.4v0.4h0.4v0.8h0.4v0.4h0.4v0.4h0.4v0.4h0.4v0.8h0.4v0.4h0.4V86h0.4v0.8h0.4v0.4h0.4v0.4h0.4
			v0.4h0.4v0.8h0.4V89h0.4v0.4h0.4v0.4h0.4v0.8h0.4v0.4h0.4v0.8h0.4V92h0.4v0.8h0.4v0.4h0.4v0.4h0.4v0.8h0.4v0.4h0.4v0.8h0.4v0.4
			h0.4v0.4h0.4v0.8h0.4v0.4h0.4V98h0.4v0.8h0.4v0.4h0.4v0.8h0.4v0.4h0.4v0.8h0.4v0.4h0.4v0.8h0.4v0.4h0.4v0.8h0.4v0.8h0.4v0.4h0.4
			v0.8h0.4v0.8h0.4v0.8h0.4v0.4h0.4v0.8h0.4v0.8h0.4v0.8h0.4v0.4h0.4v0.8h0.4v0.8h0.4v0.8h0.4v0.8h0.4v0.8h0.4v0.8h0.4v0.4h0.4v0.8
			h0.4v0.8h0.4v0.8h0.4v0.8h0.4v0.8h0.4v0.8h0.4v1.1h0.4v0.8h0.4v0.8h0.4v0.8h0.4v0.8h0.4v1.1h0.4v0.8h0.4v0.8h0.4v0.8h0.4v1.1h0.4
			v0.8h0.4v1.1h0.4v1.1h0.4v0.8h0.4v1.1h0.4v0.8h0.4v1.1h0.4v1.1h0.4v1.1h0.4v1.1h0.4v1.1h0.4v0.8h0.4v1.1h0.4v1.1h0.4v1.5h0.4v1.1
			h0.4v1.5h0.4v1.1h0.4v1.5h0.4v1.1h0.4v1.5h0.4v1.9h0.4v1.5h0.4v1.5h0.4v1.9h0.4v1.5h0.4v2.3h0.4v1.9h0.4v2.3h0.4v2.3h0.4v3h0.4
			v2.6h0.4v3.4h0.4v4.9h0.4v8.3h0.4v6h-0.4v7.9h-0.4v7.2h13.2v-0.8h0.4v-8.3h0.4v-19.2H385v-4.9h-0.4V174h-0.4v-3h-0.4v-2.6h-0.4v-3
			h-0.4v-2.3h-0.4v-1.9h-0.4V159H382v-1.9h-0.4v-1.9h-0.4v-1.5h-0.4v-1.9h-0.4v-1.5h-0.4v-1.5h-0.4v-1.9h-0.4v-1.1h-0.4v-1.5h-0.4
			v-1.1h-0.4v-1.5h-0.4v-1.1h-0.4V139h-0.4v-1.1h-0.4v-1.1h-0.4v-1.1h-0.4v-1.1h-0.4v-1.1h-0.4v-1.1h-0.4v-1.1h-0.4V130H374v-1.1
			h-0.4v-0.8h-0.4V127h-0.4v-0.8h-0.4v-1.1h-0.4v-0.8h-0.4v-1.1h-0.4v-0.8H371v-1.1h-0.4v-0.8h-0.4v-0.8h-0.4v-1.1h-0.4v-0.8h-0.4
			v-0.8h-0.4v-0.8h-0.4v-0.8H368v-1.1h-0.4v-0.8h-0.4v-0.8h-0.4v-0.8h-0.4v-0.8h-0.4v-0.8h-0.4V110h-0.4v-0.8H365v-0.8h-0.4v-0.8
			h-0.4V107h-0.4v-0.8h-0.4v-0.8h-0.4v-0.8h-0.4V104h-0.4v-0.4H362v-0.8h-0.4v-0.8h-0.4v-0.8h-0.4V101h-0.4v-0.8h-0.4v-0.8h-0.4
			v-0.4h-0.4v-0.8H359v-0.8h-0.4v-0.8h-0.4v-0.4h-0.4v-0.8h-0.4v-0.4h-0.4v-0.8h-0.4v-0.8h-0.4v-0.4H356v-0.8h-0.4v-0.4h-0.4v-0.8
			h-0.4v-0.4h-0.4v-0.8h-0.4v-0.8h-0.4v-0.4h-0.4v-0.8H353v-0.4h-0.4v-0.4h-0.4v-0.8h-0.4v-0.4h-0.4V86h-0.4v-0.4h-0.4v-0.4h-0.4
			v-0.8H350v-0.4h-0.4v-0.8h-0.4v-0.4h-0.4v-0.4h-0.4v-0.8h-0.4v-0.4h-0.4v-0.8h-0.4v-0.4h-0.4v-0.4h-0.4v-0.4h-0.4v-0.8h-0.4v-0.4
			h-0.4V78h-0.4v-0.4h-0.4v-0.8h-0.4v-0.4h-0.4v-0.4h-0.4v-0.8h-0.4V75h-0.4v-0.4h-0.4v-0.4h-0.4v-0.4h-0.4v-0.8h-0.4v-0.4h-0.4
			v-0.4h-0.4V72h-0.4v-0.4h-0.4v-0.4h-0.4v-0.8H339v-0.4h-0.4v-0.4h-0.4v-0.4h-0.4V69h-0.4v-0.4h-0.4v-0.4h-0.4v-0.8h-0.4v-0.4H336
			v-0.4h-0.4v-0.4h-0.4V66h-0.4v-0.4h-0.4v-0.4h-0.4v-0.4h-0.4v-0.4h-0.4v-0.4H333v-0.4h-0.4v-0.4h-0.4V63h-0.4v-0.4h-0.4v-0.4h-0.4
			v-0.4h-0.4v-0.4h-0.4v-0.4H330v-0.4h-0.4v-0.4h-0.4V60h-0.4v-0.4h-0.4v-0.4h-0.4v-0.4h-0.4v-0.4h-0.4v-0.4H327v-0.4h-0.4v-0.4
			h-0.4V57h-0.4v-0.4h-0.4v-0.4h-0.4v-0.4h-0.4v-0.4h-0.4v-0.4H324v-0.4h-0.4v-0.4h-0.8V54h-0.4v-0.4h-0.4v-0.4h-0.4v-0.4h-0.4v-0.4
			H321v-0.4h-0.8v-0.4h-0.4v-0.4h-0.4v-0.4h-0.4v-0.4h-0.4v-0.4h-0.4v-0.4H318v-0.4h-0.8v-0.4h-0.4v-0.4h-0.4v-0.4h-0.4v-0.4h-0.8
			v-0.4H315v-0.4h-0.4v-0.4h-0.4v-0.4h-0.8v-0.4h-0.4v-0.4h-0.4v-0.4h-0.4v-0.4h-0.8v-0.4h-0.4v-0.4h-0.4v-0.4h-0.8v-0.4h-0.4V43
			h-0.4v-0.4h-0.8v-0.4h-0.4v-0.4h-0.4v-0.4H307v-0.4h-0.4v-0.4h-0.8v-0.4h-0.4V40h-0.8v-0.4h-0.4v-0.4H304v-0.4h-0.8v-0.4h-0.4
			v-0.4h-0.8v-0.4h-0.4v-0.4H301V37h-0.4v-0.4h-0.8v-0.4h-0.4v-0.4h-0.8v-0.4h-0.4v-0.4h-0.8v-0.4h-0.8v-0.4h-0.4V34h-0.8v-0.4h-0.4
			v-0.4h-0.8v-0.4h-0.8v-0.4h-0.4v-0.4h-0.8v-0.4H292v-0.4h-0.8V31h-0.4v-0.4h-0.8v-0.4h-0.8v-0.4H289v-0.4h-0.8v-0.4h-0.8v-0.4
			h-0.8v-0.4H286V28h-0.8v-0.4h-0.8v-0.4h-0.4v-0.4h-0.8v-0.4h-0.8v-0.4h-0.8v-0.4h-0.8v-0.4h-0.8V25h-0.8v-0.4h-0.8v-0.4h-0.8v-0.4
			h-1.1v-0.4h-0.8v-0.4h-0.8v-0.4h-0.8v-0.4h-0.8V22h-1.1v-0.4H272v-0.4h-0.8v-0.4h-0.8v-0.4h-1.1v-0.4h-0.8v-0.4h-1.1v-0.4h-0.8V19
			h-1.1v-0.4h-0.8v-0.4h-1.1v-0.4H263v-0.4h-1.1v-0.4h-1.1v-0.4h-1.1v-0.4h-1.1v-0.4h-1.1v-0.4h-1.1v-0.4h-1.1v-0.4H254v-0.4h-1.1
			v-0.4h-1.1v-0.4h-1.5v-0.4h-1.1v-0.4h-1.5v-0.4h-1.1v-0.4h-1.5v-0.4h-1.1v-0.4h-1.9V11h-1.5v-0.4h-1.5v-0.4H237V9.9h-1.5V9.5h-1.9
			V9.2h-2.3V8.8h-1.9V8.4h-2.3V8H225V7.7h-3V7.3h-3V6.9h-3V6.5h-4.9V6.2h-5.6V5.8H188.1z"/>
	</g>
	<g transform="translate(25.0195, 103.64)">
		<path class="st1" d="M67.1,76.4L87,56.4h28.3v58.4H85.1V91.7l-18.1,18.1L49,91.7v23.2H18.8V56.4h28.3L67.1,76.4"/>
	</g>
	<g transform="translate(25.0195, 103.64)">
		<path class="st0" d="M67.1,76.4L87,56.4h28.3v58.4H85.1V91.7l-18.1,18.1L49,91.7v23.2H18.8V56.4h28.3L67.1,76.4"/>
	</g>
	<g transform="translate(27.25, 105.75)">
		<path class="st2" d="M19.9,57.5v51.9h23.3V81.9h0.4v0.4H44v0.4h0.4v0.4h0.4v0.4h0.4v0.4h0.4v0.4h0.4v0.4h0.4V85h0.4v0.4H47v0.4
			h0.4v0.4h0.4v0.4h0.4v0.4h0.4v0.4h0.4v0.4h0.4V88h0.4v0.4h0.4v0.4h0.4v0.4h0.4v0.4h0.4v0.4h0.4v0.4h0.4v0.4h0.4V91h0.4v0.4h0.4
			v0.4h0.4v0.4h0.4v0.4h0.4v0.4h0.4v0.4h0.4v0.4h0.4V94h0.4v0.4h0.4v0.4h0.4v0.4h0.4v0.4h0.4v0.4h0.4v0.4H58v0.4h0.4V97h0.4v0.4h0.4
			v0.4h0.4v0.4h0.4v0.4h0.4v0.4h0.4v0.4H61v0.4h0.4v0.4h0.4v0.4h0.4v0.4h0.4v0.4h0.4v0.4h0.4v0.4h0.4v0.4H64v0.4h0.4v0.4h0.8v-0.4
			h0.4v-0.4h0.4v-0.4h0.4v-0.4h0.4v-0.4H67v-0.4h0.4v-0.4h0.4V100h0.4v-0.4h0.4v-0.4h0.4v-0.4h0.4v-0.4h0.4v-0.4H70v-0.4h0.4v-0.4
			h0.4V97h0.4v-0.4h0.4v-0.4h0.4v-0.4h0.4v-0.4h0.4v-0.4H73v-0.4h0.4v-0.4h0.4V94h0.4v-0.4h0.4v-0.4h0.4v-0.4h0.4v-0.4h0.4v-0.4H76
			v-0.4h0.4v-0.4h0.4V91h0.4v-0.4h0.4v-0.4h0.4v-0.4h0.4v-0.4h0.4v-0.4H79v-0.4h0.4v-0.4h0.4V88h0.4v-0.4h0.4v-0.4h0.4v-0.4h0.4
			v-0.4h0.4v-0.4h0.4v-0.4h0.4v-0.4h0.4V85h0.4v-0.4h0.4v-0.4h0.4v-0.4h0.4v-0.4h0.4v-0.4h0.4v-0.4h0.4v-0.4h0.4v-0.4h0.4v27.5h23.7
			V57.5H85.8v0.4h-0.4v0.4h-0.4v0.4h-0.4V59h-0.4v0.4h-0.4v0.4h-0.4v0.4h-0.4v0.4h-0.4v0.4h-0.4v0.4h-0.4v0.4h-0.4V62h-0.4v0.4h-0.4
			v0.4h-0.4v0.4h-0.4v0.4h-0.4v0.4h-0.4v0.4H79v0.4h-0.4V65h-0.4v0.4h-0.4v0.4h-0.4v0.4h-0.4v0.4h-0.4v0.4h-0.4v0.4H76v0.4h-0.4V68
			h-0.4v0.4h-0.4v0.4h-0.4v0.4h-0.4v0.4h-0.4v0.4h-0.4v0.4H73v0.4h-0.4V71h-0.4v0.4h-0.4v0.4h-0.4v0.4h-0.4v0.4h-0.4v0.4h-0.4v0.4
			H70v0.4h-0.4V74h-0.4v0.4h-0.4v0.4h-0.4v0.4h-0.4v0.4h-0.4v0.4h-0.4v0.4H67v0.4h-0.4V77h-0.4v0.4h-0.4v0.4h-0.4v0.4h-0.4v0.4h-0.8
			v-0.4H64v-0.4h-0.4v-0.4h-0.4V77h-0.4v-0.4h-0.4v-0.4h-0.4v-0.4h-0.4v-0.4h-0.4v-0.4H61v-0.4h-0.4v-0.4h-0.4V74h-0.4v-0.4h-0.4
			v-0.4h-0.4v-0.4h-0.4v-0.4h-0.4v-0.4H58v-0.4h-0.4v-0.4h-0.4V71h-0.4v-0.4h-0.4v-0.4h-0.4v-0.4h-0.4v-0.4h-0.4v-0.4h-0.4v-0.4
			h-0.4v-0.4h-0.4V68h-0.4v-0.4h-0.4v-0.4h-0.4v-0.4h-0.4v-0.4h-0.4v-0.4h-0.4v-0.4h-0.4v-0.4h-0.4V65h-0.4v-0.4h-0.4v-0.4h-0.4
			v-0.4h-0.4v-0.4h-0.4v-0.4h-0.4v-0.4h-0.4v-0.4h-0.4V62h-0.4v-0.4h-0.4v-0.4H47v-0.4h-0.4v-0.4h-0.4v-0.4h-0.4v-0.4h-0.4v-0.4
			h-0.4V59h-0.4v-0.4h-0.4v-0.4H44v-0.4h-0.4v-0.4H19.9z"/>
	</g>
	<g transform="translate(92.833, 103.611)">
		<path class="st1" d="M123.2,56.4l38.1,58.5h-31.1l-4.2-6.5H88.4l-4.2,6.5H53.1l38.1-58.5H123.2z M116,92.8l-8.8-13.6l-8.8,13.6
			H116z"/>
	</g>
	<g transform="translate(122.881, 118.765)">
		<path class="st0" d="M85.9,77.7l-8.8-13.6l-8.8,13.6H85.9"/>
	</g>
	<g transform="translate(97, 105.75)">
		<path class="st3" d="M88.7,57.5v0.4h-0.4v0.4H88V59h-0.4v0.4h-0.4v0.8h-0.4v0.4h-0.4v0.8h-0.4v0.4h-0.4v0.8h-0.4v0.8h-0.4v0.4
			h-0.4v0.8h-0.4v0.4h-0.4v0.8h-0.4v0.4h-0.4v0.8h-0.4v0.4h-0.4v0.8h-0.4V68h-0.4v0.8h-0.4v0.4h-0.4v0.8h-0.4v0.8h-0.4V71h-0.4v0.8
			h-0.4v0.4h-0.4v0.8h-0.4v0.4h-0.4V74h-0.4v0.4h-0.4v0.8H77v0.4h-0.4v0.8h-0.4v0.4h-0.4v0.8h-0.4v0.4h-0.4v0.8h-0.4v0.8h-0.4v0.4
			H74v0.8h-0.4v0.4h-0.4v0.8h-0.4v0.4h-0.4v0.8h-0.4v0.4h-0.4v0.8h-0.4v0.4H71V85h-0.4v0.4h-0.4v0.8h-0.4v0.8h-0.4v0.4h-0.4V88h-0.4
			v0.4h-0.4v0.8H68v0.4h-0.4v0.8h-0.4v0.4h-0.4v0.8h-0.4v0.4h-0.4v0.8h-0.4v0.4h-0.4v0.8H65v0.8h-0.4v0.4h-0.4v0.8h-0.4v0.4h-0.4
			v0.8h-0.4V97h-0.4v0.8h-0.4v0.4H62v0.8h-0.4v0.4h-0.4v0.8h-0.4v0.4h-0.4v0.8h-0.4v0.4h-0.4v0.8h-0.4v0.8H59v0.4h-0.4v0.8h-0.4v0.4
			h-0.4v0.8h-0.4v0.4h-0.4v0.8h-0.4v0.4h-0.4v0.8H56v0.4h-0.4v0.8h-0.4v0.8h23.3V109h0.4v-0.8h0.4v-0.8h0.4v-0.4h0.4v-0.8h0.4V106
			h0.4v-0.8h0.4v-0.4h0.4v-0.8h0.4v-0.4h0.4V103h41.4v0.8h0.4v0.4h0.4v0.8h0.4v0.4h0.4v0.8h0.4v0.4h0.4v0.8h0.4v0.8h0.4v0.4h0.4v0.8
			h0.4v0.4h23.3v-0.8h-0.4v-0.8h-0.4v-0.4h-0.4v-0.8h-0.4v-0.4h-0.4v-0.8h-0.4v-0.4h-0.4v-0.8h-0.4v-0.4h-0.4v-0.8h-0.4V103h-0.4
			v-0.8h-0.4v-0.4h-0.4v-0.8h-0.4v-0.8h-0.4V100h-0.4v-0.8h-0.4v-0.4H144v-0.8h-0.4v-0.4h-0.4V97h-0.4v-0.4h-0.4v-0.8h-0.4v-0.4
			h-0.4v-0.8h-0.4v-0.4H141v-0.8h-0.4v-0.4h-0.4v-0.8h-0.4v-0.8h-0.4v-0.4h-0.4v-0.8h-0.4v-0.4h-0.4v-0.8H138v-0.4h-0.4v-0.8h-0.4
			V88h-0.4v-0.8h-0.4v-0.4h-0.4v-0.8h-0.4v-0.4h-0.4V85H135v-0.8h-0.4v-0.4h-0.4v-0.8h-0.4v-0.4h-0.4v-0.8h-0.4v-0.4h-0.4v-0.8h-0.4
			v-0.4H132v-0.8h-0.4v-0.4h-0.4v-0.8h-0.4v-0.4h-0.4v-0.8h-0.4v-0.8h-0.4v-0.4h-0.4v-0.8H129v-0.4h-0.4v-0.8h-0.4V74h-0.4v-0.8
			h-0.4v-0.4h-0.4v-0.8h-0.4v-0.4h-0.4V71H126v-0.4h-0.4v-0.8h-0.4v-0.4h-0.4v-0.8h-0.4V68h-0.4v-0.4h-0.4v-0.8h-0.4v-0.4H123v-0.8
			h-0.4v-0.4h-0.4v-0.8h-0.4v-0.4h-0.4v-0.8h-0.4v-0.4h-0.4v-0.8h-0.4V62H120v-0.8h-0.4v-0.8h-0.4v-0.4h-0.4v-0.8h-0.4V59h-0.4v-0.8
			h-0.4v-0.4h-0.4v-0.4H88.7z M102.6,71.8v-0.4h0.8v0.8h0.4v0.4h0.4v0.8h0.4v0.4h0.4v0.8h0.4v0.8h0.4v0.4h0.4v0.8h0.4v0.4h0.4v0.8
			h0.4v0.4h0.4v0.8h0.4v0.4h0.4v0.8h0.4v0.4h0.4v0.8h0.4v0.8h0.4v0.4h0.4v0.8h0.4v0.4h0.4v0.8h0.4v0.4h0.4V85h0.4v0.4h0.4v0.8h0.4
			v0.4h0.4v0.8h0.4V88h0.4v0.4h0.4v0.8h0.4v0.4h0.4v0.8h0.4v0.4h0.4v0.8h0.4v0.4h0.4v0.8h0.4v0.4h0.4v0.8h0.4V94H88.3v-0.4h0.4v-0.8
			h0.4v-0.4h0.4v-0.8h0.4v-0.4h0.4v-0.8h0.4v-0.4H91v-0.8h0.4v-0.4h0.4v-0.8h0.4V88h0.4v-0.8h0.4v-0.8h0.4v-0.4h0.4v-0.8H94V85h0.4
			v-0.8h0.4v-0.4h0.4v-0.8h0.4v-0.4h0.4v-0.8h0.4v-0.4h0.4v-0.8H97v-0.8h0.4v-0.4h0.4v-0.8h0.4v-0.4h0.4v-0.8h0.4v-0.4h0.4v-0.8h0.4
			v-0.4h0.4v-0.8h0.4v-0.8h0.4v-0.4h0.4v-0.8h0.4v-0.4h0.4v-0.8h0.4v-0.4h0.4V71.8z"/>
	</g>
	<g transform="translate(168.259, 103.64)">
		<path class="st1" d="M157.1,56.4h30.1v58.4h-30.1l-35.7-26.4v26.4H91.2V56.4h29.9l35.9,26.7V56.4"/>
	</g>
	<g transform="translate(168.259, 103.64)">
		<path class="st0" d="M157.1,56.4h30.1v58.4h-30.1l-35.7-26.4v26.4H91.2V56.4h29.9l35.9,26.7V56.4"/>
	</g>
	<g transform="translate(170.5, 105.75)">
		<path class="st2" d="M92.4,57.5v51.9h23.3V80.1h0.8v0.4h0.4v0.4h0.4v0.4h0.8v0.4h0.4v0.4h0.4v0.4h0.8v0.4h0.4v0.4h0.4v0.4h0.8v0.4
			h0.4v0.4h0.8v0.4h0.4V85h0.4v0.4h0.8v0.4h0.4v0.4h0.4v0.4h0.8v0.4h0.4v0.4h0.4v0.4h0.8V88h0.4v0.4h0.4v0.4h0.8v0.4h0.4v0.4h0.4
			v0.4h0.8v0.4h0.4v0.4h0.4V91h0.8v0.4h0.4v0.4h0.8v0.4h0.4v0.4h0.4v0.4h0.8v0.4h0.4v0.4h0.4V94h0.8v0.4h0.4v0.4h0.4v0.4h0.8v0.4
			h0.4v0.4h0.4v0.4h0.8v0.4h0.4V97h0.4v0.4h0.8v0.4h0.4v0.4h0.8v0.4h0.4v0.4h0.4v0.4h0.8v0.4h0.4v0.4h0.4v0.4h0.8v0.4h0.4v0.4h0.4
			v0.4h0.8v0.4h0.4v0.4h0.4v0.4h0.8v0.4h0.4v0.4h0.4v0.4h0.8v0.4h0.4v0.4h0.4v0.4h0.8v0.4h0.4v0.4h0.8v0.4h0.4v0.4h0.4v0.4h0.8v0.4
			h0.4v0.4h0.4v0.4h0.8v0.4h0.4v0.4h0.4v0.4h0.8v0.4h26V57.5h-23.3v29.7h-0.8v-0.4h-0.4v-0.4h-0.4v-0.4H156v-0.4h-0.4v-0.4h-0.4V85
			h-0.8v-0.4h-0.4v-0.4h-0.4v-0.4H153v-0.4h-0.4v-0.4h-0.4v-0.4h-0.8v-0.4h-0.4v-0.4h-0.4v-0.4H150v-0.4h-0.4v-0.4h-0.4v-0.4h-0.8
			v-0.4h-0.4v-0.4h-0.8v-0.4H147v-0.4h-0.4v-0.4h-0.8v-0.4h-0.4v-0.4h-0.4v-0.4h-0.8V77h-0.4v-0.4h-0.4v-0.4h-0.8v-0.4h-0.4v-0.4
			h-0.4v-0.4h-0.8v-0.4h-0.4v-0.4h-0.4V74h-0.8v-0.4h-0.4v-0.4H139v-0.4h-0.8v-0.4h-0.4v-0.4h-0.4v-0.4h-0.8v-0.4h-0.4V71h-0.8v-0.4
			h-0.4v-0.4h-0.4v-0.4h-0.8v-0.4h-0.4v-0.4h-0.4v-0.4h-0.8v-0.4h-0.4V68h-0.4v-0.4h-0.8v-0.4h-0.4v-0.4h-0.4v-0.4h-0.8v-0.4h-0.4
			v-0.4h-0.4v-0.4h-0.8V65h-0.4v-0.4h-0.4v-0.4h-0.8v-0.4h-0.4v-0.4h-0.4v-0.4h-0.8v-0.4h-0.4v-0.4H124V62h-0.4v-0.4h-0.4v-0.4h-0.8
			v-0.4h-0.4v-0.4h-0.4v-0.4H121v-0.4h-0.4v-0.4h-0.4V59h-0.8v-0.4h-0.4v-0.4h-0.4v-0.4H118v-0.4H92.4z"/>
	</g>
	<g transform="translate(169.285, 104.666)">
		<path class="st1" d="M91.8,56.9l1.9,1.9v51.5l-1.9,1.9V56.9"/>
	</g>
	<g transform="translate(94.7002, 104.621)">
		<path class="st1" d="M90.1,56.9l1,1.9l-33.6,51.6l-3.5,1.9L90.1,56.9"/>
	</g>
	<g transform="translate(70.0898, 140.154)">
		<path class="st1" d="M41.6,76.8l1.9-1.9h23.2l1.9,1.9H41.6"/>
	</g>
	<g transform="translate(243.385, 139.736)">
		<path class="st1" d="M129.2,77.2l2.8-2.6h11.8l2.3,2.6L129.2,77.2"/>
	</g>
	<g transform="translate(2.76367, 139.736)">
		<path class="st1" d="M7.6,77.2l2.3-2.6h11.8l2.8,2.6H7.6"/>
	</g>
	<g transform="translate(26.043, 104.666)">
		<path class="st4" d="M19.3,56.9l2.6,2.6h22.5l1.1-2.6H19.3"/>
	</g>
	<g transform="translate(42.6846, 104.666)">
		<path class="st4" d="M28.8,56.9l-1.1,2.6l21.6,21.6v-3.6L28.8,56.9"/>
	</g>
	<g transform="translate(57.0566, 104.666)">
		<path class="st1" d="M35,77.5v2.7l21.4-21.4l-0.8-1.9L35,77.5"/>
	</g>
	<g transform="translate(70.7227, 104.666)">
		<path class="st4" d="M68,56.9l-2.6,2.6H43l-1.1-2.6H68"/>
	</g>
	<g transform="translate(86.3662, 104.666)">
		<path class="st4" d="M52.4,56.9l-2.6,2.6v50.2l2.6,2.6V56.9"/>
	</g>
	<g transform="translate(70.0898, 121.508)">
		<path class="st1" d="M41.6,95.4l1.9-1.9V65.4l-1.9,4.6V95.4"/>
	</g>
	<g transform="translate(57.0566, 121.508)">
		<path class="st1" d="M35,89.7V87l21.5-21.5l-1.9,4.6L35,89.7"/>
	</g>
	<g transform="translate(42.3174, 121.045)">
		<path class="st1" d="M49.8,90.2v-2.7L27.6,65.2l2.6,5.3L49.8,90.2"/>
	</g>
	<g transform="translate(42.3174, 121.045)">
		<path class="st4" d="M30.1,95.9l-2.6-2.6V65.2l2.6,5.3V95.9"/>
	</g>
	<g transform="translate(26.043, 140.154)">
		<path class="st1" d="M46.4,76.8l-1.9-1.9H21.3l-1.9,1.9H46.4"/>
	</g>
	<g transform="translate(26.043, 104.666)">
		<path class="st1" d="M19.3,56.9l1.9,1.9v51.5l-1.9,1.9V56.9"/>
	</g>
	<g transform="translate(118.692, 128.819)">
		<path class="st4" d="M96.4,71.1l-3.5-1.9H69.7l-3.5,1.9H96.4"/>
	</g>
	<g transform="translate(94.7002, 140.166)">
		<path class="st1" d="M81.5,76.8l-1-1.9H57.6L54,76.8H81.5"/>
	</g>
	<g transform="translate(112.243, 135.819)">
		<path class="st1" d="M64,81.1l-1-1.9l4.2-6.5l1,1.9L64,81.1"/>
	</g>
	<g transform="translate(115.056, 135.819)">
		<path class="st1" d="M104.5,74.6l1-1.9H64.3l1,1.9H104.5"/>
	</g>
	<g transform="translate(141.743, 135.819)">
		<path class="st1" d="M77.8,74.6l1-1.9l4.2,6.5l-1,1.9L77.8,74.6"/>
	</g>
	<g transform="translate(137.905, 104.621)">
		<path class="st4" d="M113.4,112.3l-4.7-2.6L75.9,59.5l1.4-2.6L113.4,112.3"/>
	</g>
	<g transform="translate(118.66, 104.621)">
		<path class="st4" d="M66.2,56.9l1.4,2.6h27.6l1.4-2.6H66.2"/>
	</g>
	<g transform="translate(169.285, 104.666)">
		<path class="st4" d="M91.8,56.9l2.6,2.6h24.5l0.8-2.6H91.8"/>
	</g>
	<g transform="translate(187.229, 104.666)">
		<path class="st4" d="M139.7,85.1l2.6,5.1l-41.4-30.7l0.8-2.6L139.7,85.1"/>
	</g>
	<g transform="translate(213.021, 104.666)">
		<path class="st1" d="M113.9,85.1l1.9,3.8V58.8l-1.9-1.9V85.1"/>
	</g>
	<g transform="translate(213.021, 104.666)">
		<path class="st4" d="M140.9,56.9l-2.6,2.6h-21.9l-2.6-2.6H140.9"/>
	</g>
	<g transform="translate(229.298, 104.666)">
		<path class="st4" d="M124.7,56.9l-2.6,2.6v50.2l2.6,2.6V56.9"/>
	</g>
	<g transform="translate(212.337, 140.154)">
		<path class="st1" d="M113.5,76.8l0.6-1.9h25.6l1.9,1.9H113.5"/>
	</g>
	<g transform="translate(185.56, 120.008)">
		<path class="st1" d="M140.3,96.9l0.6-1.9L100,64.7l2.6,4.3L140.3,96.9"/>
	</g>
	<g transform="translate(185.56, 120.008)">
		<path class="st4" d="M102.6,96.9l-2.6-2.6V64.7l2.6,4.3V96.9"/>
	</g>
	<g transform="translate(169.285, 140.154)">
		<path class="st1" d="M118.8,76.8l-1.9-1.9H93.7l-1.9,1.9H118.8"/>
	</g>
	<g transform="translate(2, 2.25)">
		<path class="st4" d="M188.2,5.1v0.4H183v0.4h-4.9v0.4h-3v0.4h-2.6V7h-3v0.4h-2.3v0.4h-2.3v0.4h-2.3v0.4h-1.9v0.4h-1.9v0.4H157v0.4
			h-1.5V10H154v0.4h-1.9v0.4h-1.5v0.4h-1.5v0.4H148v0.4h-1.5v0.4h-1.1v0.4h-1.5V13h-1.1v0.4h-1.5v0.4H140v0.4h-1.1v0.4h-1.1v0.4
			h-1.1v0.4h-1.1v0.4h-1.1v0.4h-1.1v0.4h-1.1v0.4h-0.8v0.4h-1.1v0.4h-0.8v0.4h-1.1v0.4h-0.8v0.4h-1.1v0.4h-0.8v0.4h-1.1v0.4h-0.8
			v0.4h-1.1v0.4H122V21h-0.8v0.4h-0.8v0.4h-1.1v0.4h-0.8v0.4h-0.8v0.4h-0.8v0.4h-0.8v0.4h-1.1V24h-0.8v0.4h-0.8v0.4h-0.4v0.4h-0.8
			v0.4h-0.8v0.4h-0.8v0.4h-0.8v0.4h-0.8V27h-0.8v0.4h-0.8v0.4h-0.8v0.4h-0.8v0.4h-0.8v0.4h-0.4v0.4h-0.8v0.4h-0.8V30h-0.8v0.4h-0.4
			v0.4H102v0.4h-0.8v0.4h-0.8v0.4h-0.4v0.4h-0.8v0.4h-0.8V33h-0.4v0.4h-0.8v0.4h-0.4v0.4h-0.8v0.4h-0.8v0.4h-0.4v0.4h-0.8v0.4h-0.4
			V36h-0.8v0.4H93v0.4h-0.8v0.4h-0.4v0.4h-0.8v0.4h-0.4v0.4H90v0.4h-0.4V39h-0.8v0.4h-0.4v0.4h-0.4v0.4h-0.8v0.4H87v0.4h-0.8v0.4
			h-0.4v0.4h-0.4V42h-0.8v0.4h-0.4v0.4h-0.8v0.4h-0.4v0.4h-0.4v0.4h-0.4v0.4h-0.8v0.4h-0.4V45H81v0.4h-0.8v0.4h-0.4v0.4h-0.4v0.4
			h-0.4v0.4h-0.8v0.4h-0.4v0.4h-0.4v0.4h-0.4v0.4h-0.8v0.4h-0.4v0.4h-0.4v0.4h-0.4v0.4h-0.4v0.4h-0.8v0.4h-0.4v0.4h-0.4v0.4H73v0.4
			h-0.4v0.4h-0.4v0.4h-0.4v0.4h-0.8v0.4h-0.4v0.4h-0.4v0.4H70v0.4h-0.4v0.4h-0.4v0.4h-0.4v0.4h-0.4V56h-0.4v0.4h-0.4v0.4H67v0.4
			h-0.4v0.4h-0.4v0.4h-0.4v0.4h-0.4v0.4h-0.4V59h-0.4v0.4h-0.4v0.4H64v0.4h-0.4v0.4h-0.4v0.4h-0.4v0.4h-0.4v0.4h-0.4V62h-0.4v0.4
			h-0.4v0.4H61v0.4h-0.4v0.4h-0.4v0.4h-0.4v0.4h-0.4v0.4h-0.4v0.8h-0.4v0.4h-0.4v0.4H58v0.4h-0.4v0.4h-0.4v0.4h-0.4v0.4h-0.4V68
			h-0.4v0.4h-0.4v0.4h-0.4v0.4H55v0.8h-0.4v0.4h-0.4v0.4h-0.4V71h-0.4v0.4h-0.4v0.4h-0.4v0.8h-0.4v0.4H52v0.4h-0.4v0.4h-0.4V74h-0.4
			v0.4h-0.4v0.8h-0.4v0.4h-0.4v0.4h-0.4v0.4H49V77h-0.4v0.4h-0.4v0.4h-0.4v0.4h-0.4v0.8h-0.4v0.4h-0.4v0.4h-0.4v0.8h-0.4v0.4h-0.4
			v0.4h-0.4v0.4h-0.4v0.8h-0.4v0.4h-0.4v0.8h-0.4v0.4h-0.4v0.4h-0.4v0.8h-0.4v0.4h-0.4v0.8h-0.4v0.4h-0.4v0.4h-0.4v0.8h-0.4V88h-0.4
			v0.8h-0.4v0.4h-0.4v0.8h-0.4v0.4h-0.4V91h-0.4v0.4H38v0.8h-0.4v0.4h-0.4v0.8h-0.4V94h-0.4v0.4h-0.4v0.8h-0.4v0.4h-0.4v0.8H35v0.4
			h-0.4v0.8h-0.4v0.8h-0.4v0.8h-0.4v0.4h-0.4v0.8h-0.4v0.8h-0.4v0.8H32v0.4h-0.4v0.8h-0.4v0.8h-0.4v0.8h-0.4v0.4h-0.4v0.8h-0.4v0.8
			h-0.4v0.8H29v0.8h-0.4v0.8h-0.4v0.8h-0.4v0.8h-0.4v0.8h-0.4v0.8h-0.4v0.8h-0.4v0.8H26v0.8h-0.4v0.8h-0.4v0.8h-0.4v0.8h-0.4v1.1
			h-0.4v0.8h-0.4v0.8h-0.4v0.8H23v0.8h-0.4v1.1h-0.4v0.8h-0.4v1.1h-0.4v0.8h-0.4v1.1h-0.4v0.8h-0.4v1.1H20v0.8h-0.4v1.1h-0.4v0.8
			h-0.4v1.1h-0.4v1.1h-0.4v1.1h-0.4v1.1h-0.4v1.1H17v1.1h-0.4v1.1h-0.4v1.1h-0.4v1.1h-0.4v1.1h-0.4v1.5h-0.4v1.1h-0.4v1.5H14v1.1
			h-0.4v1.5h-0.4v1.5h-0.4v1.5h-0.4v1.9h-0.4v1.5h-0.4v1.5h-0.4v1.9h-0.4v1.9h-0.4v2.3h-0.4v1.9H9.8v2.3H9.4v2.6H9.1v2.6H8.7v3H8.3
			v3.4H7.9v4.9H7.6v7.9H7.2v9h0.4v7.9h0.4v7.5h0.4v0.4h0.4v-0.4h0.4V214h0.4v-0.4h0.4v-0.4h0.4v-0.4h0.4v-0.4h0.4v-3h-0.4v-8.7h-0.4
			v-13.6h0.4v-5.6h0.4v-4.9h0.4v-3h0.4v-3h0.4v-3h0.4v-2.3h0.4v-1.9h0.4v-2.3h0.4v-1.9H14v-2.3h0.4v-1.5h0.4v-1.5h0.4v-1.9h0.4v-1.5
			h0.4v-1.5h0.4v-1.5h0.4v-1.1H17v-1.5h0.4V144h0.4v-1.5h0.4v-1.1h0.4v-1.5h0.4v-1.1h0.4v-1.1h0.4v-1.1H20v-1.1h0.4v-1.1h0.4v-1.1
			h0.4V132h0.4v-0.8h0.4v-1.1h0.4v-0.8h0.4v-1.1H23v-1.1h0.4v-0.8h0.4v-1.1h0.4v-0.8h0.4v-1.1h0.4v-0.8h0.4v-0.8h0.4v-1.1H26v-0.8
			h0.4v-0.8h0.4v-0.8h0.4v-0.8h0.4v-1.1h0.4v-0.8h0.4v-0.8h0.4v-0.8H29v-0.8h0.4v-0.8h0.4V112h0.4v-0.8h0.4v-0.8h0.4v-0.8h0.4V109
			h0.4v-0.8H32v-0.8h0.4v-0.8h0.4V106h0.4v-0.4h0.4v-0.8h0.4v-0.8h0.4v-0.8h0.4V103H35v-0.8h0.4v-0.8h0.4v-0.4h0.4v-0.8h0.4v-0.8
			h0.4v-0.8h0.4v-0.4h0.4v-0.8H38V97h0.4v-0.4h0.4v-0.8h0.4v-0.4h0.4v-0.8h0.4v-0.4h0.4v-0.8h0.4v-0.4h0.4v-0.8h0.4v-0.8h0.4v-0.4
			h0.4v-0.8h0.4v-0.4h0.4v-0.4h0.4v-0.8h0.4v-0.4h0.4V88h0.4v-0.4h0.4v-0.4h0.4v-0.8h0.4v-0.4h0.4v-0.8h0.4v-0.4h0.4v-0.4h0.4v-0.8
			h0.4v-0.4h0.4v-0.8h0.4v-0.4h0.4v-0.4H49v-0.4h0.4v-0.8h0.4v-0.4h0.4V80h0.4v-0.4h0.4v-0.8h0.4v-0.4h0.4v-0.4H52v-0.8h0.4V77h0.4
			v-0.4h0.4v-0.4h0.4v-0.4h0.4v-0.8h0.4v-0.4h0.4v-0.4H55V74h0.4v-0.4h0.4v-0.4h0.4v-0.8h0.4v-0.4h0.4v-0.4h0.4v-0.4h0.4V71H58v-0.4
			h0.4v-0.4h0.4v-0.8h0.4v-0.4h0.4v-0.4h0.4v-0.4h0.4V68h0.4v-0.4H61v-0.4h0.4v-0.4h0.4v-0.4h0.4v-0.4h0.4v-0.4h0.4v-0.4h0.4V65h0.4
			v-0.4H64v-0.4h0.4v-0.4h0.4v-0.4h0.4v-0.4h0.4v-0.4h0.4v-0.4h0.4V62h0.4v-0.4H67v-0.4h0.4v-0.4h0.4v-0.4h0.4v-0.4h0.4v-0.4h0.4
			v-0.4h0.4V59h0.4v-0.4H70v-0.4h0.4v-0.4h0.4v-0.4h0.4v-0.4h0.4v-0.4h0.8v-0.4h0.4V56H73v-0.4h0.4v-0.4h0.4v-0.4h0.4v-0.4h0.4v-0.4
			h0.8v-0.4h0.4v-0.4h0.4v-0.4h0.4v-0.4h0.4v-0.4h0.4v-0.4h0.8v-0.4h0.4v-0.4h0.4v-0.4h0.4v-0.4h0.4v-0.4h0.8v-0.4h0.4v-0.4H81v-0.4
			h0.8v-0.4h0.4v-0.4h0.4v-0.4h0.4v-0.4h0.8v-0.4H84v-0.4h0.4v-0.4h0.4v-0.4h0.8v-0.4h0.4V45h0.4v-0.4H87v-0.4h0.4v-0.4h0.8v-0.4
			h0.4v-0.4h0.4v-0.4h0.8v-0.4H90V42h0.8v-0.4h0.4v-0.4h0.4v-0.4h0.8v-0.4h0.4v-0.4h0.8v-0.4h0.4v-0.4h0.8V39h0.4v-0.4h0.8v-0.4h0.8
			v-0.4h0.4v-0.4h0.8v-0.4h0.4v-0.4h0.8v-0.4H99V36h0.8v-0.4h0.4v-0.4h0.8v-0.4h0.8v-0.4h0.8v-0.4h0.4v-0.4h0.8v-0.4h0.8V33h0.8
			v-0.4h0.4v-0.4h0.8v-0.4h0.8v-0.4h0.8v-0.4h0.4v-0.4h0.8v-0.4h0.8V30h0.8v-0.4h0.8v-0.4h0.8v-0.4h0.8v-0.4h0.8v-0.4h0.8v-0.4h0.8
			v-0.4h0.8V27h0.8v-0.4h0.8v-0.4h0.8v-0.4h0.8v-0.4h0.8v-0.4h1.1v-0.4h0.8v-0.4h0.8V24h0.8v-0.4h0.8v-0.4h1.1v-0.4h0.8v-0.4h0.8
			v-0.4h1.1v-0.4h1.1v-0.4h0.8V21h1.1v-0.4h0.8v-0.4h1.1v-0.4h0.8v-0.4h1.1v-0.4h1.1v-0.4h1.1v-0.4h1.1v-0.4h1.1v-0.4h1.1v-0.4h1.1
			v-0.4h1.1v-0.4h1.1v-0.4h1.1v-0.4h1.5v-0.4h1.1v-0.4h1.5v-0.4h1.5v-0.4h1.1v-0.4h1.5v-0.4h1.9V13h1.5v-0.4h1.5v-0.4h1.9v-0.4h1.5
			v-0.4h2.3v-0.4h2.3v-0.4h1.9v-0.4h2.3V10h2.6V9.7h3V9.3h3V8.9h4.5V8.5h4.9V8.2h21.1v0.4h4.9v0.4h4.5v0.4h2.6v0.4h3V10h3v0.4h2.3
			v0.4h1.9v0.4h2.3v0.4h1.9v0.4h1.9v0.4h1.5v0.4h1.9V13h1.5v0.4h1.5v0.4h1.9v0.4h1.1v0.4h1.5v0.4h1.1v0.4h1.5v0.4h1.1v0.4h1.5v0.4
			h1.1v0.4h1.1v0.4h1.1v0.4h1.1v0.4h1.1v0.4h1.1v0.4h1.1v0.4h1.1v0.4h0.8v0.4h1.1v0.4h0.8v0.4h1.1V21h1.1v0.4h0.8v0.4h1.1v0.4h0.8
			v0.4h1.1v0.4h0.8v0.4h0.8v0.4h0.8V24h1.1v0.4h0.8v0.4h0.8v0.4h0.8v0.4h1.1v0.4h0.8v0.4h0.8v0.4h0.8V27h0.8v0.4h0.8v0.4h0.8v0.4
			h0.8v0.4h0.8v0.4h0.8v0.4h0.8v0.4h0.8V30h0.8v0.4h0.8v0.4h0.4v0.4h0.8v0.4h0.8v0.4h0.8v0.4h0.4v0.4h0.8V33h0.8v0.4h0.8v0.4h0.4
			v0.4h0.8v0.4h0.8v0.4h0.4v0.4h0.8v0.4h0.8V36h0.4v0.4h0.8v0.4h0.4v0.4h0.8v0.4h0.4v0.4h0.8v0.4h0.8v0.4h0.4V39h0.8v0.4h0.4v0.4
			h0.8v0.4h0.4v0.4h0.8v0.4h0.4v0.4h0.8v0.4h0.4V42h0.4v0.4h0.8v0.4h0.4v0.4h0.8v0.4h0.4v0.4h0.4v0.4h0.8v0.4h0.4V45h0.8v0.4h0.4
			v0.4h0.4v0.4h0.4v0.4h0.8v0.4h0.4v0.4h0.4v0.4h0.8v0.4h0.4v0.4h0.4v0.4h0.4v0.4h0.8v0.4h0.4v0.4h0.4v0.4h0.4v0.4h0.8v0.4h0.4v0.4
			h0.4v0.4h0.4v0.4h0.4v0.4h0.8v0.4h0.4v0.4h0.4v0.4h0.4v0.4h0.4v0.4h0.4v0.4h0.4v0.4h0.8v0.4h0.4V56h0.4v0.4h0.4v0.4h0.4v0.4h0.4
			v0.4h0.4v0.4h0.4v0.4h0.4v0.4h0.4V59h0.8v0.4h0.4v0.4h0.4v0.4h0.4v0.4h0.4v0.4h0.4v0.4h0.4v0.4h0.4V62h0.4v0.4h0.4v0.4h0.4v0.4
			h0.4v0.4h0.4v0.4h0.4v0.4h0.4v0.4h0.4V65h0.4v0.4h0.4v0.4h0.4v0.4h0.4v0.4h0.4v0.4h0.4v0.8h0.4V68h0.4v0.4h0.4v0.4h0.4v0.4h0.4
			v0.4h0.4v0.4h0.4v0.4h0.4v0.4h0.4V71h0.4v0.4h0.4v0.8h0.4v0.4h0.4v0.4h0.4v0.4h0.4v0.4h0.4V74h0.4v0.8h0.4v0.4h0.4v0.4h0.4v0.4
			h0.4v0.4h0.4v0.4h0.4v0.8h0.4v0.4h0.4v0.4h0.4v0.8h0.4v0.4h0.4v0.4h0.4V80h0.4v0.8h0.4v0.4h0.4v0.4h0.4v0.4h0.4v0.8h0.4v0.4h0.4
			v0.4h0.4v0.8h0.4v0.4h0.4v0.4h0.4v0.8h0.4v0.4h0.4v0.8h0.4v0.4h0.4v0.4h0.4v0.8h0.4v0.4h0.4v0.8h0.4v0.4h0.4v0.8h0.4V91h0.4v0.8
			h0.4v0.4h0.4v0.8h0.4v0.4h0.4V94h0.4v0.4h0.4v0.8h0.4v0.4h0.4v0.8h0.4V97h0.4v0.4h0.4v0.8h0.4v0.4h0.4v0.8h0.4v0.8h0.4v0.4h0.4
			v0.8h0.4v0.8h0.4v0.8h0.4v0.4h0.4v0.8h0.4v0.8h0.4v0.8h0.4v0.4h0.4v0.8h0.4v0.8h0.4v0.8h0.4v0.8h0.4v0.8h0.4v0.8h0.4v0.8h0.4v0.8
			h0.4v0.8h0.4v0.8h0.4v0.8h0.4v0.8h0.4v0.8h0.4v0.8h0.4v0.8h0.4v0.8h0.4v1.1h0.4v0.8h0.4v0.8h0.4v0.8h0.4v1.1h0.4v0.8h0.4v0.8h0.4
			v1.1h0.4v0.8h0.4v1.1h0.4v0.8h0.4v1.1h0.4v1.1h0.4v0.8h0.4v1.1h0.4v1.1h0.4v1.1h0.4v0.8h0.4v1.1h0.4v1.1h0.4v1.1h0.4v1.1h0.4v1.1
			h0.4v1.5h0.4v1.1h0.4v1.5h0.4v1.1h0.4v1.5h0.4v1.5h0.4v1.1h0.4v1.9h0.4v1.5h0.4v1.5h0.4v1.9h0.4v1.5h0.4v2.3h0.4v1.9h0.4v2.3h0.4
			v1.9h0.4v2.6h0.4v3h0.4v3h0.4v3.8h0.4v4.9h0.4v9.4h0.4v4.5h-0.4v8.7h-0.4v6.4h0.4v0.4h0.4v0.4h0.4v0.4h0.4v0.8h0.4v0.4h0.8v-3.4
			h0.4v-7.5h0.4V196h0.4v-0.4h-0.4v-11.3h-0.4V179h-0.4v-4.1h-0.4v-3H387v-2.6h-0.4v-3h-0.4V164h-0.4v-1.9h-0.4v-2.3h-0.4V158h-0.4
			v-1.9h-0.4v-1.5H384v-1.9h-0.4v-1.5h-0.4v-1.5h-0.4v-1.9h-0.4v-1.1h-0.4v-1.5h-0.4V144h-0.4v-1.5h-0.4v-1.1h-0.4v-1.5h-0.4v-1.1
			h-0.4v-1.1h-0.4v-1.1h-0.4v-1.1h-0.4v-1.1h-0.4v-1.1h-0.4V132h-0.4v-1.1h-0.4v-1.1h-0.4V129h-0.4v-1.1h-0.4v-0.8h-0.4V126h-0.4
			v-0.8h-0.4v-1.1h-0.4v-0.8h-0.4v-1.1h-0.4v-0.8h-0.4v-1.1H373v-0.8h-0.4v-0.8h-0.4v-0.8h-0.4v-1.1h-0.4v-0.8h-0.4v-0.8h-0.4v-0.8
			h-0.4v-0.8H370v-1.1h-0.4V112h-0.4v-0.4h-0.4v-0.8h-0.4v-0.8h-0.4v-0.8h-0.4v-0.8h-0.4v-0.8H367v-0.8h-0.4v-0.8h-0.4v-0.8h-0.4
			v-0.8h-0.4v-0.8h-0.4v-0.8h-0.4V103h-0.4v-0.8H364v-0.8h-0.4v-0.8h-0.4v-0.4h-0.4v-0.8h-0.4v-0.8h-0.4v-0.4h-0.4v-0.8h-0.4V97H361
			v-0.8h-0.4v-0.4h-0.4v-0.8h-0.4v-0.4h-0.4V94h-0.4v-0.4h-0.4v-0.8h-0.4v-0.4H358v-0.8h-0.4V91h-0.4v-0.4h-0.4v-0.8h-0.4v-0.4h-0.4
			v-0.8h-0.4v-0.4h-0.4v-0.8H355v-0.4h-0.4v-0.4h-0.4v-0.8h-0.4v-0.4h-0.4v-0.8h-0.4v-0.4h-0.4v-0.4h-0.4v-0.8H352v-0.4h-0.4v-0.8
			h-0.4v-0.4h-0.4v-0.4h-0.4v-0.8h-0.4v-0.4h-0.4V80h-0.4v-0.4H349v-0.8h-0.4v-0.4h-0.4v-0.4h-0.4v-0.8h-0.4V77h-0.4v-0.4h-0.4v-0.4
			h-0.4v-0.8h-0.4v-0.4h-0.4v-0.4h-0.4v-0.4h-0.4v-0.8h-0.4v-0.4h-0.4v-0.4h-0.4v-0.4h-0.4v-0.4h-0.4v-0.4h-0.4V71h-0.4v-0.4h-0.4
			v-0.4h-0.4v-0.4H341v-0.4h-0.4v-0.4h-0.4v-0.4h-0.4V68h-0.4v-0.4h-0.4v-0.4h-0.4v-0.4h-0.4v-0.4H338v-0.4h-0.4v-0.4h-0.4v-0.4
			h-0.4V65h-0.4v-0.4h-0.4v-0.4h-0.4v-0.4h-0.4v-0.4H335v-0.4h-0.4v-0.4h-0.4v-0.4h-0.4v-0.8h-0.4v-0.4h-0.4v-0.4h-0.4v-0.4h-0.4
			v-0.4H332v-0.4h-0.8v-0.4h-0.4V59h-0.4v-0.4h-0.4v-0.4h-0.4v-0.4h-0.4v-0.4H329v-0.4h-0.4v-0.4h-0.4v-0.4h-0.4V56h-0.4v-0.4h-0.4
			v-0.4h-0.4v-0.4h-0.4v-0.4H326v-0.4h-0.4v-0.4h-0.8v-0.4h-0.4v-0.4h-0.4v-0.4h-0.4v-0.4h-0.4v-0.4H323v-0.4h-0.8v-0.4h-0.4v-0.4
			h-0.4v-0.4h-0.4v-0.4h-0.4v-0.4h-0.4v-0.4H320v-0.4h-0.8v-0.4h-0.4v-0.4h-0.4v-0.4h-0.4v-0.4h-0.8v-0.4H317v-0.4h-0.4v-0.4h-0.8
			v-0.4h-0.4v-0.4h-0.4V45h-0.4v-0.4h-0.8v-0.4h-0.4v-0.4h-0.4v-0.4h-0.4v-0.4h-0.8v-0.4h-0.4v-0.4h-0.8V42h-0.4v-0.4h-0.4v-0.4
			h-0.8v-0.4h-0.4v-0.4h-0.8v-0.4h-0.4v-0.4h-0.4v-0.4h-0.8V39h-0.4v-0.4h-0.8v-0.4h-0.4v-0.4h-0.4v-0.4h-0.8v-0.4h-0.4v-0.4H303
			v-0.4h-0.8V36h-0.4v-0.4h-0.8v-0.4h-0.4v-0.4H300v-0.4h-0.4v-0.4h-0.8v-0.4h-0.8v-0.4h-0.4V33H297v-0.4h-0.4v-0.4h-0.8v-0.4h-0.8
			v-0.4h-0.8v-0.4H294v-0.4h-0.8v-0.4h-0.8V30h-0.4v-0.4h-0.8v-0.4h-0.8v-0.4h-0.8v-0.4h-0.4v-0.4h-0.8v-0.4H288v-0.4h-0.8V27h-0.8
			v-0.4h-0.8v-0.4H285v-0.4h-0.8v-0.4h-0.8v-0.4h-0.8v-0.4H282v-0.4h-0.8V24h-0.8v-0.4h-0.8v-0.4h-0.8v-0.4h-0.8v-0.4h-1.1v-0.4
			h-0.8v-0.4h-0.8v-0.4h-0.8V21h-1.1v-0.4h-0.8v-0.4h-0.8v-0.4H271v-0.4h-0.8v-0.4h-1.1v-0.4h-0.8v-0.4h-1.1v-0.4h-0.8v-0.4h-1.1
			v-0.4h-0.8v-0.4h-1.1v-0.4h-1.1v-0.4h-1.1v-0.4h-1.1v-0.4H259v-0.4h-1.1v-0.4h-1.1v-0.4h-1.1v-0.4h-1.1v-0.4h-1.1V13h-1.5v-0.4
			h-1.1v-0.4h-1.5v-0.4h-1.1v-0.4h-1.5v-0.4h-1.1v-0.4h-1.9v-0.4h-1.5V10h-1.5V9.7h-1.9V9.3h-1.5V8.9h-1.9V8.5H233V8.2h-1.9V7.8
			h-2.3V7.4h-2.3V7h-3V6.7h-3V6.3h-3V5.9h-4.9V5.5h-4.9V5.1H188.2z"/>
	</g>
	<g transform="translate(11.5, 11.75)">
		<path class="st4" d="M179.1,9.9v0.4h-4.9v0.4h-4.5v0.4h-3v0.4h-3v0.4H161v0.4h-2.3v0.4h-2.3V13h-1.9v0.4h-2.3v0.4h-1.5v0.4h-1.5
			v0.4h-1.9v0.4H146v0.4h-1.5v0.4H143V16h-1.1v0.4h-1.5v0.4h-1.1v0.4h-1.5v0.4h-1.1v0.4h-1.5v0.4h-1.1v0.4h-1.1V19h-1.1v0.4h-1.1
			v0.4h-0.8v0.4h-1.1v0.4h-1.1v0.4h-1.1v0.4h-0.8v0.4h-1.1V22h-0.8v0.4h-1.1v0.4h-0.8v0.4h-1.1v0.4h-1.1v0.4h-0.8v0.4h-0.8v0.4h-0.8
			V25h-0.8v0.4h-1.1v0.4h-0.8v0.4H114v0.4h-0.8v0.4h-1.1v0.4h-0.8v0.4h-0.8V28h-0.8v0.4h-0.4v0.4h-0.8v0.4H108v0.4h-0.8v0.4h-0.8
			v0.4h-0.8v0.4H105V31h-0.8v0.4h-0.8v0.4h-0.8v0.4h-0.4v0.4h-0.8v0.4h-0.8v0.4h-0.8v0.4h-0.4V34h-0.8v0.4h-0.8v0.4h-0.4v0.4H97v0.4
			h-0.8v0.4h-0.4v0.4h-0.8v0.4h-0.4V37H94v0.4h-0.8v0.4h-0.4v0.4h-0.8v0.4h-0.4v0.4H91v0.4h-0.4v0.4h-0.8v0.4h-0.4v0.4h-0.8v0.4
			h-0.4v0.4h-0.8v0.4h-0.4v0.4h-0.4v0.4h-0.8v0.4h-0.4v0.4H85v0.4h-0.4v0.4h-0.4v0.4h-0.8v0.4h-0.4V45h-0.8v0.4H82v0.4h-0.4v0.4
			h-0.4v0.4h-0.8v0.4h-0.4v0.4h-0.4v0.4H79V48h-0.4v0.4h-0.4v0.4h-0.4v0.4h-0.8v0.4h-0.4v0.4h-0.4v0.4H76v0.4h-0.8V51h-0.4v0.4h-0.4
			v0.4h-0.4v0.4h-0.4v0.4h-0.4v0.4H73v0.4h-0.8v0.4h-0.4V54h-0.4v0.4h-0.4v0.4h-0.4v0.4h-0.4v0.4h-0.8v0.4h-0.4v0.4h-0.4v0.4h-0.4
			V57h-0.4v0.4h-0.4v0.4h-0.4v0.4h-0.4v0.4h-0.4v0.4h-0.4v0.4h-0.4v0.4h-0.4V60h-0.4v0.4h-0.4v0.4h-0.4v0.4h-0.4v0.4h-0.4v0.4h-0.4
			v0.4h-0.4v0.4h-0.4V63H62v0.4h-0.4v0.4h-0.4v0.4h-0.4v0.4h-0.4v0.4h-0.4v0.4h-0.4v0.4h-0.4V66H59v0.4h-0.4v0.4h-0.4v0.4h-0.4v0.8
			h-0.4v0.4h-0.4v0.4h-0.4V69h-0.4v0.4H56v0.4h-0.4v0.4h-0.4v0.8h-0.4v0.4h-0.4v0.4h-0.4v0.4h-0.4v0.4h-0.4v0.4H53v0.8h-0.4v0.4
			h-0.4v0.4h-0.4v0.4h-0.4v0.4h-0.4v0.8h-0.4v0.4h-0.4v0.4H50v0.8h-0.4v0.4h-0.4v0.4h-0.4v0.4h-0.4v0.8h-0.4v0.4h-0.4V80h-0.4v0.4
			H47v0.8h-0.4v0.4h-0.4v0.8h-0.4v0.4h-0.4V83h-0.4v0.8h-0.4v0.4h-0.4v0.8H44v0.4h-0.4v0.4h-0.4v0.8h-0.4v0.4h-0.4v0.8h-0.4v0.4
			h-0.4v0.8h-0.4V89H41v0.8h-0.4v0.4h-0.4v0.8h-0.4v0.8h-0.4V92h-0.4v0.8h-0.4v0.4h-0.4v0.8H38v0.4h-0.4V95h-0.4v0.8h-0.4v0.4h-0.4
			v0.8h-0.4v0.8h-0.4v0.8h-0.4v0.4h-0.4v0.8h-0.4v0.8h-0.4v0.8h-0.4v0.4h-0.4v0.8h-0.4v0.8h-0.4v0.8h-0.4v0.8h-0.4v0.8h-0.4v0.8
			h-0.4v0.8h-0.4v0.8h-0.4v0.8H30v0.8h-0.4v0.8h-0.4v0.8h-0.4v0.8h-0.4v0.8h-0.4v0.8h-0.4v1.1h-0.4v0.8H27v0.8h-0.4v0.8h-0.4v0.8
			h-0.4v1.1h-0.4v0.8h-0.4v1.1h-0.4v0.8h-0.4v1.1H24v0.8h-0.4v1.1h-0.4v1.1h-0.4v0.8h-0.4v1.1h-0.4v1.1h-0.4v1.1h-0.4v1.1H21v1.1
			h-0.4v1.1h-0.4v1.1h-0.4v1.1h-0.4v1.5h-0.4v1.1h-0.4v1.5h-0.4v1.1H18v1.5h-0.4v1.5h-0.4v1.5h-0.4v1.5h-0.4v1.9h-0.4v1.5h-0.4v1.5
			h-0.4v2.3H15v2.3h-0.4v1.9h-0.4v2.3h-0.4v3h-0.4v2.6h-0.4v3h-0.4v5.3h-0.4v6.8H12v9.8h0.4v7.9h0.4v5.3h0.4v0.4h0.4v0.4h0.4v0.4
			h0.8v0.4H15v0.4h0.4v0.4h0.8v-1.1h-0.4V197h-0.4v-6.8H15v-12.4h0.4v-5.3h0.4V168h0.4v-3h0.4v-2.6h0.4v-3h0.4v-1.9h0.4v-2.3H18V153
			h0.4v-1.9h0.4v-1.5h0.4v-1.9h0.4v-1.5h0.4v-1.5h0.4v-1.5h0.4v-1.5H21v-1.5h0.4v-1.1h0.4v-1.5h0.4v-1.1h0.4v-1.5h0.4v-1.1h0.4v-1.1
			h0.4v-1.1H24v-1.1h0.4v-0.8h0.4v-1.1h0.4v-1.1h0.4v-1.1h0.4v-1.1h0.4v-0.8h0.4v-1.1H27v-0.8h0.4v-1.1h0.4v-0.8h0.4v-1.1h0.4v-0.8
			h0.4V118h0.4v-1.1h0.4v-0.8H30v-0.8h0.4v-0.8h0.4v-1.1h0.4v-0.8h0.4V112h0.4v-0.8h0.4v-0.8h0.4v-0.8h0.4v-0.8h0.4v-0.8h0.4v-0.8
			h0.4v-0.8h0.4v-0.8h0.4v-0.8h0.4v-0.8h0.4v-0.8h0.4v-0.4h0.4v-0.8h0.4v-0.8h0.4V101h0.4v-0.4H38v-0.8h0.4v-0.8h0.4v-0.8h0.4V98
			h0.4v-0.8h0.4v-0.8h0.4v-0.4h0.4v-0.8H41v-0.8h0.4v-0.4h0.4v-0.8h0.4v-0.4h0.4v-0.8h0.4V92h0.4v-0.8h0.4v-0.4H44v-0.8h0.4v-0.8
			h0.4V89h0.4v-0.4h0.4v-0.8h0.4v-0.4h0.4v-0.8h0.4v-0.4H47V86h0.4v-0.8h0.4v-0.4h0.4v-0.8h0.4v-0.4h0.4v-0.4h0.4v-0.8h0.4v-0.4H50
			v-0.4h0.4v-0.8h0.4v-0.4h0.4v-0.4h0.4v-0.8h0.4v-0.4h0.4v-0.4h0.4v-0.4H53v-0.8h0.4v-0.4h0.4v-0.4h0.4v-0.4h0.4v-0.8h0.4v-0.4h0.4
			v-0.4h0.4v-0.4H56v-0.4h0.4v-0.4h0.4v-0.8h0.4v-0.4h0.4v-0.4h0.4v-0.4h0.4v-0.4h0.4v-0.4H59v-0.8h0.4v-0.4h0.4v-0.4h0.4v-0.4h0.4
			V69h0.4v-0.4h0.4v-0.4h0.4v-0.4H62v-0.4h0.4v-0.4h0.4v-0.4h0.4v-0.4h0.4V66h0.4v-0.4h0.4v-0.4h0.4v-0.8h0.4v-0.4h0.4v-0.4h0.4
			v-0.4h0.4V63h0.4v-0.4h0.8v-0.4h0.4v-0.4h0.4v-0.4h0.4v-0.4h0.4v-0.4h0.4v-0.4h0.4V60h0.4v-0.4h0.4v-0.4h0.4v-0.4h0.4v-0.4h0.4
			v-0.4h0.4v-0.4h0.4v-0.4h0.4V57h0.8v-0.4h0.4v-0.4h0.4v-0.4h0.4v-0.4h0.4v-0.4h0.4v-0.4h0.4v-0.4h0.8V54h0.4v-0.4h0.4v-0.4h0.4
			v-0.4h0.4v-0.4h0.4v-0.4H79v-0.4h0.4v-0.4h0.4V51h0.8v-0.4h0.4v-0.4h0.4v-0.4h0.4v-0.4h0.8v-0.4h0.4v-0.4h0.4v-0.4h0.4V48h0.8
			v-0.4h0.4v-0.4H85v-0.4h0.8v-0.4h0.4v-0.4h0.8v-0.4h0.4v-0.4h0.4V45h0.8v-0.4h0.4v-0.4h0.8v-0.4h0.4v-0.4h0.4v-0.4H91v-0.4h0.4
			v-0.4h0.8v-0.4h0.4v-0.4h0.8v-0.4H94v-0.4h0.4v-0.4h0.8v-0.4h0.4v-0.4h0.8v-0.4h0.4v-0.4h0.8v-0.4h0.4v-0.4h0.8v-0.4h0.8v-0.4h0.4
			V37h0.8v-0.4h0.8v-0.4h0.8v-0.4h0.4v-0.4h0.8v-0.4h0.8v-0.4h0.8v-0.4h0.4V34h0.8v-0.4h0.8v-0.4h0.8v-0.4h0.8v-0.4h0.8v-0.4h0.8
			v-0.4h0.8v-0.4h0.8V31h0.8v-0.4h0.8v-0.4h0.8v-0.4h0.8v-0.4h0.8v-0.4h0.8v-0.4h0.8v-0.4h1.1V28h0.8v-0.4h0.8v-0.4h0.8v-0.4h0.8
			v-0.4h1.1v-0.4h0.8v-0.4h1.1v-0.4h0.8V25h1.1v-0.4h0.8v-0.4h1.1v-0.4h1.1v-0.4h0.8v-0.4h1.1v-0.4h1.1v-0.4h1.1V22h1.1v-0.4h1.1
			v-0.4h1.1v-0.4h1.1v-0.4h1.1v-0.4h1.5v-0.4h1.1v-0.4h1.5V19h1.1v-0.4h1.5v-0.4h1.5v-0.4h1.5v-0.4h1.9v-0.4h1.5v-0.4h1.5v-0.4h1.9
			V16h2.3v-0.4h2.3v-0.4h1.9v-0.4h2.6v-0.4h3v-0.4h3v-0.4h3.8v-0.4h5.3V13h19.6v0.4h4.9v0.4h4.1v0.4h3v0.4h3v0.4h2.3v0.4h2.3v0.4
			h2.3V16h1.9v0.4h1.9v0.4h1.9v0.4h1.5v0.4h1.5v0.4h1.9v0.4h1.5v0.4h1.1V19h1.5v0.4h1.1v0.4h1.5v0.4h1.1v0.4h1.5v0.4h1.1v0.4h1.1
			v0.4h1.1V22h1.1v0.4h1.1v0.4h1.1v0.4h0.8v0.4h1.1v0.4h1.1v0.4h0.8v0.4h1.1V25h0.8v0.4h1.1v0.4h0.8v0.4h1.1v0.4h0.8v0.4h0.8v0.4
			h1.1v0.4h0.8V28h0.8v0.4h0.8v0.4h0.8v0.4h1.1v0.4h0.8v0.4h0.8v0.4h0.8v0.4h0.8V31h0.8v0.4h0.8v0.4h0.8v0.4h0.8v0.4h0.8v0.4h0.8
			v0.4h0.8v0.4h0.4V34h0.8v0.4h0.8v0.4h0.8v0.4h0.4v0.4h0.8v0.4h0.8v0.4h0.8v0.4h0.4V37h0.8v0.4h0.8v0.4h0.8v0.4h0.4v0.4h0.8v0.4
			h0.4v0.4h0.8v0.4h0.4v0.4h0.8v0.4h0.8v0.4h0.4v0.4h0.8v0.4h0.4v0.4h0.8v0.4h0.4v0.4h0.8v0.4h0.4v0.4h0.8v0.4h0.4v0.4h0.4v0.4h0.8
			V45h0.4v0.4h0.8v0.4h0.4v0.4h0.4v0.4h0.8v0.4h0.4v0.4h0.8v0.4h0.4V48h0.4v0.4h0.4v0.4h0.8v0.4h0.4v0.4h0.4v0.4h0.4v0.4h0.8v0.4
			h0.4V51h0.4v0.4h0.8v0.4h0.4v0.4h0.4v0.4h0.4v0.4h0.8v0.4h0.4v0.4h0.4V54h0.4v0.4h0.4v0.4h0.4v0.4h0.4v0.4h0.8v0.4h0.4v0.4h0.4
			v0.4h0.4V57h0.4v0.4h0.4v0.4h0.8v0.4h0.4v0.4h0.4v0.4h0.4v0.4h0.4v0.4h0.4V60h0.4v0.4h0.4v0.4h0.4v0.4h0.4v0.4h0.4v0.4h0.4v0.4
			h0.4v0.4h0.4V63h0.4v0.4h0.4v0.4h0.4v0.4h0.4v0.4h0.4v0.4h0.4v0.4h0.4v0.4h0.4V66h0.4v0.4h0.4v0.4h0.4v0.4h0.4v0.4h0.4v0.4h0.4
			v0.4h0.4v0.4h0.4V69h0.4v0.4h0.4v0.8h0.4v0.4h0.4v0.4h0.4v0.4h0.4v0.4h0.4v0.4h0.4v0.8h0.4v0.4h0.4v0.4h0.4v0.4h0.4v0.4h0.4v0.4
			h0.4v0.4h0.4v0.8h0.4v0.4h0.4v0.4h0.4v0.4h0.4v0.8h0.4v0.4h0.4v0.4h0.4v0.4h0.4v0.8h0.4V80h0.4v0.4h0.4v0.4h0.4v0.8h0.4v0.4h0.4
			v0.4h0.4V83h0.4v0.4h0.4v0.4h0.4v0.8h0.4v0.4h0.4v0.8h0.4V86h0.4v0.4h0.4v0.8h0.4v0.4h0.4v0.8h0.4v0.4h0.4v0.8h0.4v0.4h0.4v0.8
			h0.4v0.4h0.4v0.8h0.4V92h0.4v0.8h0.4v0.4h0.4v0.8h0.4v0.4h0.4V95h0.4v0.8h0.4v0.4h0.4v0.8h0.4v0.8h0.4V98h0.4v0.8h0.4v0.8h0.4v0.8
			h0.4v0.4h0.4v0.8h0.4v0.8h0.4v0.4h0.4v0.8h0.4v0.8h0.4v0.8h0.4v0.8h0.4v0.8h0.4v0.8h0.4v0.8h0.4v0.8h0.4v0.8h0.4v0.8h0.4v0.8h0.4
			v0.8h0.4v0.8h0.4v0.8h0.4v0.8h0.4v1.1h0.4v0.8h0.4v0.8h0.4v0.8h0.4v0.8h0.4v1.1h0.4v0.8h0.4v1.1h0.4v0.8h0.4v1.1h0.4v0.8h0.4v1.1
			h0.4v0.8h0.4v1.1h0.4v1.1h0.4v1.1h0.4v1.1h0.4v1.1h0.4v1.1h0.4v1.1h0.4v0.8h0.4v1.5h0.4v1.1h0.4v1.5h0.4v1.1h0.4v1.5h0.4v1.1h0.4
			v1.5h0.4v1.5h0.4v1.9h0.4v1.5h0.4v1.5h0.4v1.9h0.4v2.3h0.4v1.9h0.4v2.3h0.4v2.3h0.4v3h0.4v2.6h0.4v3.4h0.4v4.9h0.4v9h0.4v4.1h-0.4
			v6.8h-0.4v7.2h-0.4v3.8h0.8v-0.4h0.4v-0.4h0.4v-0.4h0.4v-0.4h0.4v-0.4h0.4V203h0.4v-0.4h0.4v-7.9h0.4v-19.6h-0.4v-4.9h-0.4v-3.8
			h-0.4v-3h-0.4v-3h-0.4v-2.6h-0.4V156H362v-2.3h-0.4v-1.9h-0.4V150h-0.4v-1.9h-0.4v-1.5h-0.4v-1.5h-0.4v-1.9h-0.4v-1.5H359v-1.1
			h-0.4v-1.5h-0.4v-1.1h-0.4v-1.5h-0.4v-1.1h-0.4v-1.5h-0.4v-1.1h-0.4v-1.1H356v-1.1h-0.4v-1.1h-0.4v-1.1h-0.4V127h-0.4v-1.1h-0.4
			v-0.8h-0.4V124h-0.4v-0.8H353v-1.1h-0.4V121h-0.4v-0.8h-0.4v-1.1h-0.4v-0.8h-0.4v-1.1h-0.4v-0.8h-0.4v-0.8H350V115h-0.4v-0.8h-0.4
			v-1.1h-0.4v-0.8h-0.4v-0.8h-0.4v-0.8h-0.4v-1.1h-0.4v-0.8H347v-0.4h-0.4v-0.8h-0.4v-0.8h-0.4v-0.8h-0.4v-0.8h-0.4v-0.8h-0.4V104
			h-0.4v-0.8H344v-0.8h-0.4v-0.8h-0.4V101h-0.4v-0.4h-0.4v-0.8h-0.4v-0.8h-0.4v-0.8h-0.4V98H341v-0.8h-0.4v-0.8h-0.4v-0.8h-0.4v-0.4
			h-0.4v-0.8h-0.4v-0.8h-0.4v-0.4h-0.4v-0.8h-0.4v-0.4h-0.4v-0.8h-0.4v-0.4h-0.4v-0.8h-0.4v-0.8h-0.4v-0.4h-0.4v-0.8h-0.4v-0.4h-0.4
			v-0.8h-0.4v-0.4h-0.4v-0.8h-0.4V86h-0.4v-0.4h-0.4v-0.8h-0.4v-0.4h-0.4v-0.8h-0.4v-0.4h-0.4V83h-0.4v-0.8h-0.4v-0.4h-0.4v-0.8H330
			v-0.4h-0.4v-0.4h-0.4v-0.8h-0.4v-0.4h-0.4v-0.4h-0.4v-0.4h-0.4v-0.8h-0.4v-0.4H327v-0.4h-0.4v-0.8h-0.4v-0.4h-0.4v-0.4h-0.4v-0.4
			h-0.4v-0.8h-0.4v-0.4h-0.4v-0.4H324v-0.4h-0.4v-0.4h-0.4v-0.4h-0.4v-0.8h-0.4v-0.4h-0.4v-0.4h-0.4v-0.4h-0.4v-0.4H321v-0.4h-0.4
			V69h-0.4v-0.4h-0.4v-0.4h-0.4v-0.4h-0.4v-0.4h-0.4v-0.4h-0.4v-0.4H318v-0.4h-0.4V66h-0.4v-0.4h-0.4v-0.4h-0.4v-0.4h-0.4v-0.8h-0.4
			v-0.4h-0.4v-0.4H315V63h-0.4v-0.4h-0.4v-0.4h-0.4v-0.4h-0.4v-0.4h-0.4v-0.4h-0.4v-0.4h-0.4v-0.4H312V60h-0.4v-0.4h-0.4v-0.4h-0.4
			v-0.4h-0.4v-0.4h-0.8v-0.4h-0.4v-0.4H309v-0.4h-0.4V57h-0.4v-0.4h-0.4v-0.4h-0.4v-0.4h-0.4v-0.4h-0.4v-0.4h-0.4v-0.4H306v-0.4
			h-0.4V54h-0.8v-0.4h-0.4v-0.4h-0.4v-0.4h-0.4v-0.4h-0.4v-0.4h-0.4v-0.4h-0.8v-0.4h-0.4V51h-0.4v-0.4h-0.4v-0.4h-0.4v-0.4h-0.4
			v-0.4h-0.8v-0.4h-0.4v-0.4h-0.4v-0.4H298V48h-0.4v-0.4h-0.4v-0.4h-0.4v-0.4h-0.8v-0.4h-0.4v-0.4h-0.4v-0.4H295v-0.4h-0.8V45h-0.4
			v-0.4h-0.4v-0.4h-0.8v-0.4h-0.4v-0.4h-0.8v-0.4h-0.4v-0.4h-0.8v-0.4h-0.4v-0.4h-0.4v-0.4H289v-0.4h-0.4v-0.4h-0.8v-0.4h-0.4v-0.4
			h-0.4v-0.4h-0.8v-0.4h-0.8v-0.4h-0.4v-0.4h-0.8v-0.4h-0.4v-0.4h-0.8v-0.4H283V37h-0.8v-0.4h-0.4v-0.4h-0.8v-0.4h-0.8v-0.4H280
			v-0.4h-0.8v-0.4h-0.8v-0.4h-0.4V34h-0.8v-0.4h-0.8v-0.4h-0.8v-0.4h-0.4v-0.4h-0.8v-0.4H274v-0.4h-0.8v-0.4h-0.4V31h-0.8v-0.4h-0.8
			v-0.4h-0.8v-0.4h-0.8v-0.4h-0.8v-0.4h-0.8v-0.4h-0.8v-0.4h-0.8V28h-0.8v-0.4h-0.8v-0.4h-0.8v-0.4h-0.8v-0.4H263v-0.4h-1.1v-0.4
			h-0.8v-0.4h-0.8V25h-0.8v-0.4h-0.8v-0.4h-1.1v-0.4H257v-0.4h-0.8v-0.4h-1.1v-0.4h-0.8v-0.4h-1.1V22h-1.1v-0.4h-0.8v-0.4h-1.1v-0.4
			h-0.8v-0.4h-1.1v-0.4h-1.1v-0.4h-1.1v-0.4H245V19h-1.1v-0.4h-1.1v-0.4h-1.1v-0.4h-1.1v-0.4h-1.1v-0.4h-1.5v-0.4h-1.1v-0.4h-1.5V16
			h-1.1v-0.4h-1.5v-0.4H231v-0.4h-1.9v-0.4h-1.5v-0.4h-1.5v-0.4h-1.9v-0.4h-1.9V13h-2.3v-0.4h-1.9v-0.4H216v-0.4h-2.6v-0.4h-3v-0.4
			h-3v-0.4h-4.5v-0.4h-4.9V9.9H179.1z"/>
	</g>
	<g transform="translate(128.743, 114.557)">
		<path class="st1" d="M86.4,85.3l-3.5-1.9L71.3,65.5v-3.5L86.4,85.3"/>
	</g>
	<g transform="translate(144.56, 140.166)">
		<path class="st1" d="M106.7,76.8l-3.5-1.9H80.3l-1,1.9H106.7"/>
	</g>
</g>
</svg>
