<?xml version="1.0" encoding="utf-8"?>
<!-- Generator: Adobe Illustrator 25.0.0, SVG Export Plug-In . SVG Version: 6.00 Build 0)  -->
<svg version="1.1" id="Capa_1" xmlns="http://www.w3.org/2000/svg" xmlns:xlink="http://www.w3.org/1999/xlink" x="0px" y="0px"
	 viewBox="0 0 227 224.7" style="enable-background:new 0 0 227 224.7;" xml:space="preserve">
<style type="text/css">
	.st0{fill:#021A51;}
</style>
<g id="XIgeAO_1_">
	<g>
		<path class="st0" d="M220,112.4c-0.1,58.8-47.8,106.2-106.7,106C54.9,218.3,7.4,170.6,7.5,112.1C7.7,53.2,55.4,5.8,114.2,6
			C172.7,6.2,220.1,53.9,220,112.4z M144.5,156.1c1-0.5,1.3-1.5,1.7-2.3c15.3-29.7,30.6-59.3,46-89c0.6-1.2,0.5-1.9-0.2-3
			C183.8,49.1,173,39,160,31.2c-1.3-0.8-1.7-0.5-2.2,0.8c-2.9,6.4-5.8,12.7-8.7,19.1c-7.8,17-15.6,33.9-23.3,50.9
			c-1,2.2-2.3,3.2-4.8,3.1c-4.8-0.2-9.6-0.2-14.5,0c-2.4,0.1-3.6-0.8-4.6-2.9c-3.2-7.2-6.6-14.4-10-21.6
			c-7.5-16.2-15-32.4-22.5-48.7c-0.5-1.2-0.9-1.6-2.2-0.8C54.2,39,43.3,49,35.1,61.8c-0.8,1.2-0.7,2-0.1,3.2
			c15.4,29.5,30.8,59.1,46.2,88.6c0.5,0.9,0.7,2.5,2,2.4c1.1-0.1,1.2-1.6,1.7-2.5c5.7-12.6,11.5-25.2,17.1-37.9
			c0.9-1.9,2-2.8,4.2-2.7c5.1,0.1,10.2,0.1,15.3,0c2,0,3.2,0.7,4,2.5c3,6.7,6,13.4,9,20c2.9,6.3,5.7,12.6,8.6,18.9
			C143.4,155.1,143.6,155.9,144.5,156.1z M202,81.8c-0.4,0.7-0.7,1.3-1,1.9c-3.3,6.5-6.6,12.9-10,19.4c-14.5,28.2-29,56.3-43.5,84.5
			c-0.8,1.5-1.6,2.7-3.5,2.7c-1.9,0-2.7-1.4-3.4-2.8c-1.2-2.5-2.3-5-3.5-7.6c-7.3-15.9-14.5-31.8-21.8-47.7c-0.4-0.8-0.5-2-1.6-2
			c-1.1,0-1.2,1.3-1.6,2.1c0,0.1-0.1,0.1-0.1,0.2c-6,13.4-12.1,26.8-18.1,40.2c-2.3,5.1-4.6,10.2-6.9,15.3c-0.6,1.3-1.6,2.3-3.2,2.3
			c-1.6,0-2.6-0.9-3.2-2.2c-0.2-0.4-0.4-0.8-0.6-1.2c-15.2-29.5-30.4-59-45.5-88.5c-2.8-5.5-5.6-11-8.5-16.6
			c-11.9,31.3-5.2,75,29.7,103.4c34,27.7,82.5,27.6,116.5-0.2C206.9,156.6,213.9,112.5,202,81.8z M113.7,18.6
			c-9.7,0-19.2,1.6-28.4,4.6c-1.4,0.5-1.8,0.8-1.1,2.4c9.3,19.9,18.5,39.8,27.8,59.8c0.4,0.9,0.6,2.4,1.7,2.4c1.2,0,1.4-1.4,1.8-2.3
			c9.3-20,18.5-40,27.9-59.9c0.7-1.4,0.3-1.8-1.1-2.3C133,20.2,123.5,18.6,113.7,18.6z"/>
	</g>
</g>
</svg>
